<?xml version="1.0" encoding="UTF-8" standalone="no"?>
<!-- Created with Inkscape (http://www.inkscape.org/) -->

<svg
   xmlns:dc="http://purl.org/dc/elements/1.1/"
   xmlns:cc="http://creativecommons.org/ns#"
   xmlns:rdf="http://www.w3.org/1999/02/22-rdf-syntax-ns#"
   xmlns:svg="http://www.w3.org/2000/svg"
   xmlns="http://www.w3.org/2000/svg"
   xmlns:sodipodi="http://sodipodi.sourceforge.net/DTD/sodipodi-0.dtd"
   xmlns:inkscape="http://www.inkscape.org/namespaces/inkscape"
   width="134.1019mm"
   height="162.41737mm"
   viewBox="0 0 475.16421 575.49463"
   id="svg3347"
   version="1.1"
   inkscape:version="0.91 r13725"
   sodipodi:docname="morbius.svg"
   inkscape:export-filename="C:\Users\mk.1\Desktop\ackcon15\Morbius\logo\morbius.png"
   inkscape:export-xdpi="160"
   inkscape:export-ydpi="160">
  <defs
     id="defs3349" />
  <sodipodi:namedview
     id="base"
     pagecolor="#000000"
     bordercolor="#666666"
     borderopacity="1.0"
     inkscape:pageopacity="1"
     inkscape:pageshadow="2"
     inkscape:zoom="0.49497475"
     inkscape:cx="439.71815"
     inkscape:cy="21.352264"
     inkscape:document-units="px"
     inkscape:current-layer="layer1"
     showgrid="false"
     inkscape:snap-global="false"
     inkscape:window-width="1680"
     inkscape:window-height="998"
     inkscape:window-x="-8"
     inkscape:window-y="-8"
     inkscape:window-maximized="1"
     fit-margin-top="0"
     fit-margin-left="0"
     fit-margin-right="0"
     fit-margin-bottom="0" />
  <metadata
     id="metadata3352">
    <rdf:RDF>
      <cc:Work
         rdf:about="">
        <dc:format>image/svg+xml</dc:format>
        <dc:type
           rdf:resource="http://purl.org/dc/dcmitype/StillImage" />
        <dc:title></dc:title>
      </cc:Work>
    </rdf:RDF>
  </metadata>
  <g
     inkscape:label="Ebene 1"
     inkscape:groupmode="layer"
     id="layer1"
     transform="translate(-154.90516,-368.8752)">
    <rect
       style="opacity:1;fill:#000000;fill-opacity:1;stroke:none;stroke-opacity:1"
       id="rect4258"
       width="475.16458"
       height="575.49463"
       x="154.90517"
       y="368.87521" />
    <path
       style="fill:#ffffff;fill-opacity:1;stroke:none;stroke-opacity:1"
       d="m 199.24198,939.80863 c -2.96454,-2.2776 -5.43145,-4.9242 -5.48203,-5.8812 -0.38475,-7.2814 -5.93327,-17.5314 -8.87837,-16.4012 -1.82766,0.7014 -4.14259,-0.052 -5.14424,-1.6715 -1.00167,-1.6209 -2.47892,-2.2891 -3.28282,-1.4853 -2.42208,2.4221 0.96599,8.451 5.40095,9.6109 4.31926,1.1295 7.54684,6.3282 4.89518,7.8846 -2.3023,1.3516 -11.22501,-2.482 -11.22501,-4.8224 0,-1.1274 -3.29536,-4.0863 -7.32302,-6.5757 -10.23263,-6.324 -15.5369,-14.81 -12.39848,-19.8352 1.3301,-2.13 3.0448,-9.4842 3.8104,-16.343 2.33468,-20.9152 15.53595,-38.7411 26.99355,-36.4496 6.50451,1.301 6.58344,1.4605 3.24412,6.5569 -4.88682,7.4582 -8.97974,41.2544 -6.15715,50.841 2.11972,7.1992 2.23078,7.2686 2.41628,1.5098 0.10694,-3.3198 1.64158,-8.8345 3.4103,-12.2549 2.34182,-4.5285 2.84974,-9.7217 1.86881,-19.1069 -1.34709,-12.8879 -1.34709,-12.8879 7.44867,-17.3753 4.83766,-2.468 9.57543,-5.8372 10.52838,-7.4873 2.64926,-4.5871 21.83283,-18.5905 25.46763,-18.5905 5.19216,0 3.71495,3.0872 -3.52299,7.3628 -15.41787,9.1075 -27.76043,27.0712 -27.75534,40.3957 10e-4,3.9712 -1.09132,15.0499 -2.42851,24.6197 -2.24566,16.0712 -2.08128,18.1904 2.15329,27.7634 6.23807,14.1022 5.66825,15.1933 -4.0396,7.7352 z m -28.06141,-69.7345 c -0.0252,-5.235 -0.53271,-6.1067 -2.12302,-3.6458 -2.76334,4.2758 -2.76334,13.566 0,11.8582 1.18581,-0.7329 2.14117,-4.4285 2.12302,-8.2124 z m 76.41809,49.3309 c -2.28319,-1.6694 -3.40204,-3.7847 -2.48631,-4.7004 0.91573,-0.9159 3.282,-0.047 5.25837,1.9284 4.6601,4.66 2.61157,6.7087 -2.77206,2.772 z m -20.86729,-24.0363 c -0.88936,-0.8969 -1.58753,-4.1372 -1.55146,-7.2005 0.0576,-4.8864 0.33977,-5.0986 2.30107,-1.7289 2.45529,4.2183 1.84052,11.5416 -0.74961,8.9294 z m -2.57557,-21.5569 c 1.92052,-8.2457 11.30896,-24.6318 14.11286,-24.6318 2.32312,0 1.48677,1.9031 -4.88372,11.1129 -2.1772,3.1476 -3.95853,7.6373 -3.95853,9.9772 0,2.34 -1.51634,5.5128 -3.36962,7.0509 -2.96413,2.4598 -3.19289,2.0377 -1.90099,-3.5092 z m -62.13504,-23.7631 c -0.67119,-0.6712 0.23324,-4.6994 2.00987,-8.9514 1.77661,-4.2521 3.00275,-12.1772 2.72471,-17.6114 -1.22778,-23.9973 -0.42595,-32.4231 4.08285,-42.9041 2.5781,-5.993 4.68745,-13.0716 4.68745,-15.7304 0,-2.6588 2.84665,-12.6661 6.32586,-22.23862 3.47923,-9.5725 6.87843,-21.09765 7.55374,-25.61147 0.67533,-4.5138 2.6796,-11.01425 4.45393,-14.44547 1.77435,-3.43119 4.31799,-11.38065 5.65253,-17.66544 2.36376,-11.13173 14.20018,-37.56223 16.01072,-35.75169 1.15659,1.15659 -4.53769,28.56909 -6.64167,31.97342 -3.46808,5.61148 -4.93181,17.14573 -2.17584,17.14573 3.0325,0 1.93913,8.13947 -5.76053,42.88375 -4.14635,18.71019 -5.27969,21.08079 -14.94595,31.26249 -22.38725,23.5807 -23.46221,33.6868 -2.90792,27.3382 18.49264,-5.7118 18.32197,-5.7618 9.5657,2.8026 -11.30006,11.0524 -23.52637,30.5504 -23.66722,37.7435 -0.0828,4.2263 -5.25606,11.4724 -6.96823,9.7603 z m 114.37271,-19.3012 c -0.65136,-0.6514 -0.41245,-4.7748 0.5309,-9.1632 0.94335,-4.3883 2.83869,-13.5575 4.21187,-20.376 2.43079,-12.0702 4.90283,-15.3649 7.14474,-9.5225 0.95443,2.4872 -0.03,8.1908 -6.1081,35.3949 -1.04682,4.6851 -3.3193,6.1269 -5.77941,3.6668 z m -10.99363,-29.2081 c -1.48423,-5.6757 2.28887,-22.9163 5.44168,-24.8649 1.30511,-0.8066 1.50935,3.411 0.54996,11.3558 -1.87588,15.5342 -4.13189,20.6208 -5.99164,13.5091 z m 358.73113,-30.5155 c -11.60736,-60.95244 -30.86748,-118.04269 -39.82322,-118.04269 -1.60618,0 -4.12816,-1.45532 -5.60437,-3.23404 -2.14756,-2.58767 -2.13354,-3.23405 0.0701,-3.23405 1.85216,0 1.47613,-1.41224 -1.14817,-4.31206 -2.14631,-2.37163 -4.87576,-4.31206 -6.06543,-4.31206 -1.1897,0 -10.49892,-3.76124 -20.68716,-8.35829 -10.18824,-4.59706 -27.80829,-11.88102 -39.15567,-16.18661 -24.35369,-9.2406 -30.08963,-12.82397 -26.44624,-16.52156 1.92676,-1.95541 8.44677,-0.0379 28.0284,8.24326 14.03464,5.9353 27.94308,11.46806 30.90762,12.29503 6.93326,1.93406 46.71433,21.95378 54.3641,27.35856 19.03937,15.96411 0.39486,25.21407 9.77782,33.51737 2.38838,4.36989 -2.42107,4.24365 1.54969,12.02705 1.72709,3.31109 3.75298,9.61748 4.50196,14.0142 0.74901,4.39673 3.11814,16.24087 5.26477,26.32031 2.14661,10.07944 5.04921,24.14758 6.45018,31.26248 1.40099,7.1149 3.05414,15.1191 3.6737,17.7872 0.61956,2.6681 0.17723,4.8511 -0.98278,4.8511 -1.16008,0 -3.264,-6.0638 -4.67536,-13.4752 z m -351.30414,-22.0993 c -1.53802,-7.11492 -3.34189,-15.2639 -4.00858,-18.10884 -0.83434,-3.56037 -0.44213,-4.69675 1.25831,-3.64583 1.35875,0.83977 2.47046,4.44401 2.47046,8.00944 0,3.56543 1.03002,8.4072 2.28895,10.75952 1.25893,2.35234 1.95108,6.89701 1.53811,10.09941 -0.55852,4.3311 -1.46715,2.5089 -3.54725,-7.1137 z m 7.76238,-8.62414 c -4.55819,-14.62238 -4.39591,-21.7287 0.3913,-17.13383 3.94814,3.78955 4.34852,5.65094 2.78231,12.93619 -1.43634,6.68128 -2.11823,7.58321 -3.17361,4.19764 z m 260.21258,-94.96274 c -6.70584,-11.44264 -6.558,-11.80017 3.4051,-8.23578 4.15036,1.48484 6.2272,2.75446 4.61518,2.8214 -2.06582,0.0858 -2.67089,2.34902 -2.04996,7.6678 1.11967,9.59065 0.92848,9.51848 -5.97032,-2.25342 z m -320.71324,4.05504 c -3.55374,-3.55374 39.80326,-22.28392 51.58327,-22.28392 1.99862,0 4.90534,-1.69787 6.45936,-3.77305 2.57006,-3.43195 2.71501,-3.33449 1.60325,1.07802 -0.67223,2.66808 -2.80696,4.86344 -4.74383,4.8786 -7.40331,0.0578 -38.2828,11.26498 -44.85855,16.28055 -7.54541,5.75516 -7.9531,5.91022 -10.0435,3.8198 z m 131.52479,-56.87361 c -14.1218,-11.10822 -14.73317,-30.09123 -0.96911,-30.09123 2.42952,0 2.0616,5.97654 -0.42032,6.82744 -2.82696,0.9692 3.71206,19.62704 7.6568,21.8471 3.35879,1.8903 4.16802,5.82195 1.1983,5.82195 -1.0259,0 -4.38545,-1.98236 -7.46567,-4.40526 z M 331.76126,565.2425 c -2.49942,-3.8146 -4.84924,-14.48432 -6.67927,-30.32854 -1.55282,-13.44395 -3.43225,-25.42885 -4.17649,-26.63308 -2.79886,-4.52861 1.2492,-17.00194 5.51773,-17.00194 7.14133,0 10.51988,7.50859 8.22343,18.27602 -1.35882,6.37108 -1.26723,10.902 0.27879,13.79075 1.26637,2.36625 2.30249,8.24691 2.30249,13.06814 0,10.33126 0.16947,10.40099 7.89045,3.24549 4.7509,-4.403 5.34713,-5.89704 2.94563,-7.38126 -3.0005,-1.85442 -1.4236,-10.87747 4.33919,-24.82891 2.75905,-6.67953 2.67947,5.67017 -0.0834,12.937 -1.48193,3.89774 -1.41947,7.04848 0.19965,10.07395 1.70389,3.18377 1.70397,5.05447 3e-4,6.75814 -1.29567,1.29567 -2.35577,6.08512 -2.35577,10.6432 0,6.69677 -0.72419,8.16584 -3.77305,7.65391 -2.69077,-0.45179 -3.96438,1.02194 -4.44004,5.13778 -1.08889,9.42173 -5.67121,11.48557 -10.18977,4.58935 z m 101.23321,-18.36483 c 1.65232,-10.33295 2.22117,-11.31185 5.42347,-9.33273 4.69366,2.90086 0.88566,18.41492 -4.52003,18.41492 -1.56064,0 -1.86557,-3.06534 -0.90344,-9.08219 z M 291.58378,503.10216 c -17.28483,-3.44191 -24.76565,-6.95674 -21.58212,-10.14027 2.63029,-2.63029 14.05039,-0.28804 12.31177,2.52513 -0.65455,1.05908 6.82491,3.83782 16.62106,6.17493 20.06173,4.78626 14.71426,5.83398 -7.35071,1.44021 z m 164.74181,-9.17702 c -1.58181,-3.35183 -1.88163,-6.455 -0.73452,-7.60212 1.14714,-1.14714 2.55119,0.85181 3.43967,4.89699 1.92094,8.74599 0.71485,9.95207 -2.70515,2.70513 z m -67.82157,-16.08916 c 3.63886,-1.75309 5.57733,-1.71506 7.43831,0.14596 1.9185,1.9185 0.74842,2.4822 -4.92142,2.37097 -6.98552,-0.13712 -7.13873,-0.29025 -2.51689,-2.51689 z m -72.91224,-3.66355 c 1.22754,-2.29367 2.25504,-12.23836 2.28333,-22.09931 0.0282,-9.86096 1.08974,-21.80985 2.35878,-26.55312 1.26906,-4.74327 2.94378,-12.91251 3.72163,-18.15388 2.73946,-18.45942 8.05088,-11.07631 9.18232,12.76381 1.50107,31.62825 -0.32301,48.58662 -5.73972,53.36176 -7.14071,6.29492 -15.05519,6.75126 -11.80634,0.68074 z m 105.7838,-4.27577 c -5.43057,-3.59503 -0.26116,-5.57444 14.1319,-5.41121 7.60874,0.0862 13.83406,-0.53918 13.83406,-1.38993 0,-7.61538 -9.3351,-30.01941 -12.48381,-29.96085 -3.27279,0.0608 -3.22024,0.42127 0.46825,3.21178 5.96748,4.51468 2.7946,6.19276 -6.13621,3.24534 -9.84082,-3.24776 -11.48397,-6.0401 -4.57474,-7.77422 5.32462,-1.33639 5.47826,-1.88432 5.47826,-19.53674 0,-28.42959 -7.95433,-39.08452 -29.68906,-39.76889 -5.88544,-0.18542 -5.88544,-0.18542 0.58265,-2.1335 21.48042,-6.46988 35.94392,7.96144 43.06615,42.97036 3.44711,16.94403 13.89241,42.48892 14.01321,34.27052 0.0748,-5.09401 4.8582,-4.77878 8.17923,0.539 2.32812,3.72795 2.1532,4.31207 -1.29134,4.31207 -2.19134,0 -5.11238,2.47594 -6.49118,5.5021 -3.97283,8.71942 -31.32424,17.06337 -39.08737,11.92417 z m 33.40761,-19.41983 c -1.56334,-4.92562 -5.44165,-6.11706 -5.44165,-1.6717 0,3.06875 4.57093,8.43711 5.98221,7.02584 0.48377,-0.48377 0.24052,-2.89313 -0.54056,-5.35414 z m 31.97314,7.42904 c 1.50818,-3.93032 -0.99667,-3.95323 -15.85448,-0.1451 -2.96455,0.75983 1.27898,-2.13404 9.43004,-6.43082 16.75989,-8.83489 22.87823,-7.77645 15.11947,2.61557 -5.23247,7.00831 -10.84576,9.56495 -8.69503,3.96026 z M 352.32016,427.19985 c -9.17312,-1.64563 -10.1769,-4.91389 -1.50923,-4.91389 5.65359,0 7.97732,0.94205 7.97732,3.23404 0,1.77873 -0.24255,3.10193 -0.53901,2.94044 -0.29645,-0.16149 -2.96454,-0.72876 -5.92908,-1.26059 z"
       id="path4243"
       inkscape:connector-curvature="0"
       sodipodi:nodetypes="ccsccccsccssssssssssssssccccccccccsscsssscscssssssssssssssssccsssscsssscsssssssssscccsssssccsscssssssssssssssssscsssssssscsssssssssscssssccssssssssssssscscccsssssssssscssssccscsssssssscsssccsssss" />
    <path
       style="fill:#ffffff;fill-opacity:1"
       d="m 348.41215,901.33128 c -6.77573,-0.7982 -10.03976,-2.03875 -9.15045,-3.47764 0.3509,-0.56781 -0.30072,-1.04025 -1.44804,-1.04994 -1.71245,-0.015 -1.78675,-0.20699 -0.41487,-1.07495 1.33117,-0.84214 0.92209,-1.48375 -2.01071,-3.1535 -4.30134,-2.44881 -4.63903,-4.68556 -1.2557,-8.31714 1.75239,-1.88101 2.7931,-2.26754 3.69005,-1.37063 1.57026,1.57024 3.47371,1.643 2.51773,0.0957 -0.64094,-1.03702 0.87262,-1.65256 3.17114,-1.28967 1.19003,0.18785 0.54571,-2.56193 -0.83146,-3.54844 -0.61586,-0.4412 -0.7703,-1.15165 -0.3432,-1.57877 1.11168,-1.11163 4.04718,2.12363 3.47751,3.83258 -0.27804,0.83407 0.52516,1.43116 1.92534,1.43116 1.59879,0 2.40237,-0.73928 2.40237,-2.21022 0,-1.21553 0.61227,-2.41422 1.3606,-2.66376 2.3554,-0.78506 0.0978,-4.09803 -4.17382,-6.12514 -4.21938,-2.00219 -5.02303,-3.28864 -2.88136,-4.61221 0.67336,-0.41617 1.71743,-2.05375 2.32017,-3.63909 0.60274,-1.58533 2.04793,-3.13135 3.21152,-3.43566 1.50289,-0.39299 1.96654,-1.33303 1.6009,-3.24575 -1.17237,-6.13298 6.27682,-5.50279 9.41739,0.79648 1.69007,3.39 5.02395,4.00728 7.06868,1.30904 2.22872,-2.9412 2.06478,-3.84907 -0.69502,-3.84907 -1.30589,0 -2.09009,-0.45999 -1.74268,-1.02203 0.34741,-0.56215 -0.40033,-1.29198 -1.66166,-1.62177 -1.383,-0.36163 -2.29331,-1.57416 -2.29331,-3.05456 0,-2.131 -0.31717,-2.28506 -2.40505,-1.16767 -1.32277,0.70791 -2.70654,0.98571 -3.07503,0.61716 -0.3685,-0.36854 -0.14352,-0.66997 0.49996,-0.66997 0.64348,0 3.12519,-3.9562 5.51491,-8.79143 2.38971,-4.83524 5.05334,-9.63519 5.91917,-10.66656 0.86583,-1.03137 2.36502,-2.91295 3.33154,-4.1814 1.61826,-2.12386 1.71585,-1.71864 1.23348,5.12144 -0.45191,6.40801 -0.21521,7.64394 1.72401,9.00223 1.23632,0.86601 2.24784,2.29279 2.24784,3.17079 0,0.87789 0.51735,1.91594 1.14966,2.30674 0.74871,0.46276 0.73847,-0.37096 -0.0294,-2.39046 -0.64847,-1.70561 -0.88525,-4.02677 -0.52618,-5.158 0.35906,-1.13134 0.13264,-2.37847 -0.50315,-2.77146 -0.75636,-0.46736 -0.77257,-1.72279 -0.0469,-3.63147 1.58123,-4.15892 1.38671,-5.09019 -0.90891,-4.35172 -1.68673,0.54255 -1.73563,0.44984 -0.29793,-0.56469 1.09689,-0.77411 2.12047,-0.81354 2.8252,-0.1084 1.41803,1.41802 3.29481,1.44258 2.42283,0.0311 -0.36489,-0.59041 -0.10067,-1.42125 0.58712,-1.84641 0.68781,-0.42505 0.94986,-1.55651 0.58235,-2.5142 -0.53318,-1.38942 -0.0248,-1.59179 2.51595,-1.0015 1.7513,0.40694 2.62741,0.33499 1.94692,-0.15994 -0.68048,-0.49504 -1.64899,-1.93774 -2.15225,-3.20619 -0.59104,-1.48975 -1.10717,-1.79129 -1.45781,-0.85171 -0.29855,0.80005 -1.52373,1.97971 -2.72264,2.62132 -2.70176,1.44592 -1.76869,-2.04637 1.15623,-4.32751 1.34087,-1.04578 1.40825,-1.4141 0.26365,-1.44143 -1.69119,-0.0404 -1.22197,-2.90879 0.48047,-2.93716 0.58138,-0.0115 1.63072,-0.38319 2.33189,-0.83003 0.8425,-0.53679 1.09898,0.10724 0.75627,1.90049 -0.28522,1.49205 0.005,3.03587 0.64307,3.43071 0.70154,0.43358 1.08711,-0.76892 0.97345,-3.03588 -0.13687,-2.73006 -0.71374,-3.71438 -2.11501,-3.60898 -1.14932,0.0865 -1.69245,-0.46575 -1.346,-1.36866 0.32239,-0.84007 1.39704,-1.20031 2.41529,-0.80962 1.26849,0.48685 1.64157,0.19753 1.20923,-0.93762 -0.95443,-2.50589 1.06776,-6.83077 3.19391,-6.83077 1.16865,0 1.64777,-0.63188 1.25509,-1.65521 -0.34934,-0.91037 -0.27514,-1.81847 0.16491,-2.01799 0.44004,-0.19954 1.68161,-2.17899 2.75902,-4.39879 1.84514,-3.80152 2.00369,-3.88526 2.72906,-1.44142 0.93563,3.1522 3.31562,3.50937 2.49586,0.37456 -0.40727,-1.55739 -0.10321,-2.03684 1.01863,-1.60634 0.87956,0.33752 1.5992,0.0392 1.5992,-0.66284 0,-0.70209 -0.38918,-1.21507 -0.86485,-1.13997 -2.55822,0.40394 -4.95032,-0.27674 -4.3554,-1.23933 0.37485,-0.60653 1.4433,-0.81047 2.37432,-0.4532 0.93104,0.35728 1.69279,0.0445 1.69279,-0.69499 0,-0.73951 0.51892,-1.02386 1.15314,-0.63188 0.63423,0.39197 1.15314,0.21866 1.15314,-0.38514 0,-0.60381 -0.81693,-1.41132 -1.81539,-1.79446 -1.63447,-0.62721 -1.62484,-0.88718 0.0966,-2.6086 1.05158,-1.05157 2.41411,-2.999 3.02786,-4.32759 0.61373,-1.32859 2.38322,-4.49128 3.93219,-7.02818 1.54896,-2.53691 3.73305,-6.46653 4.85352,-8.73249 1.97052,-3.98506 12.8055,-20.65502 14.18608,-21.82575 3.79114,-3.21489 1.96285,-4.61506 -6.15507,-4.7138 -32.02545,-0.38949 -34.28143,-0.51001 -33.78487,-1.80467 0.61833,-1.61214 -2.30607,-5.88239 -3.32835,-4.86012 -0.39918,0.39917 0.0302,1.48176 0.95421,2.40574 2.97168,2.97168 0.41403,3.99711 -11.77694,4.72171 -17.33473,1.03033 -29.13191,9.90426 -31.71265,23.85454 -1.82281,9.85322 -8.85901,20.75653 -13.39475,20.75653 -1.48384,0 -1.19985,-33.59009 0.29328,-34.6899 0.50196,-0.36973 0.43663,-1.92647 -0.1452,-3.45942 -4.33518,-11.42201 -0.22916,-16.72538 12.71814,-16.42684 14.62795,0.33728 14.75891,0.35367 14.4598,1.80901 -0.38742,1.88503 7.06287,2.03298 8.91873,0.17711 0.87285,-0.87284 1.75843,-1.09305 1.96794,-0.48934 0.23011,0.66299 4.48368,0.3878 10.74195,-0.695 8.29451,-1.43511 10.81398,-1.50975 12.63218,-0.37427 1.66067,1.03711 2.38859,1.06618 2.70794,0.10817 0.6745,-2.02352 5.76244,-1.54831 6.9945,0.65328 0.83038,1.4838 1.47828,1.65251 2.65187,0.69054 1.54,-1.26229 14.82111,-2.608 14.81313,-1.50092 -0.002,0.31711 4.79695,0.43641 10.66498,0.26511 10.89786,-0.31812 15.38199,0.82812 17.00729,4.34745 0.43934,0.95134 1.48174,3.02699 2.31644,4.61256 1.3595,2.5825 1.3288,2.72683 -0.29469,1.38543 -1.04905,-0.86678 -2.09302,-1.04321 -2.47884,-0.41895 -0.36659,0.59317 -0.0221,1.61329 0.76547,2.26694 1.62499,1.34863 4.80661,-0.52536 5.00019,-2.94513 0.28408,-3.55102 0.5727,-3.95169 2.35407,-3.26812 1.50688,0.57824 1.62294,0.40117 0.56925,-0.86845 -0.79194,-0.95424 -2.54738,-1.36086 -4.37047,-1.01236 -2.10241,0.40191 -2.79397,0.17317 -2.23092,-0.73787 0.47962,-0.77603 0.0748,-1.32033 -0.98175,-1.32033 -0.98877,0 -1.79777,-0.51892 -1.79777,-1.15314 0,-1.70234 4.9866,-1.40053 7.52475,0.45543 1.82316,1.33311 2.40392,1.34637 3.39154,0.0774 1.21306,-1.55861 5.12564,-2.17228 11.85825,-1.85988 4.49881,0.20874 5.25274,4.22011 1.44142,7.66931 -1.26845,1.14794 -2.30628,2.96413 -2.30628,4.03599 0,1.07186 -1.03783,2.88805 -2.30628,4.03599 -1.26846,1.14794 -2.30628,2.81573 -2.30628,3.70621 0,0.90967 -0.57079,1.26627 -1.30274,0.8139 -0.79234,-0.4897 -1.08926,-0.17751 -0.75785,0.79679 0.86002,2.52835 -3.28846,9.45596 -9.61213,16.0514 -4.20984,4.39079 -5.40072,6.30922 -4.32802,6.97218 1.94331,1.20103 -0.86965,6.83032 -3.41314,6.83032 -0.94987,0 -1.40581,0.32123 -1.0132,0.71385 1.28376,1.28376 -2.48137,3.97985 -5.90773,4.23036 -3.55087,0.2596 -3.80272,2.5978 -0.37754,3.50493 1.0559,0.27965 0.46218,0.56865 -1.31938,0.64222 -1.78155,0.0736 -2.95482,-0.32635 -2.60726,-0.88871 0.34757,-0.56237 -0.23788,-1.72992 -1.30099,-2.59457 -1.69696,-1.38017 -1.83618,-1.31423 -1.14044,0.54022 0.43586,1.16177 0.79247,3.16322 0.79247,4.44766 0,1.60209 0.54308,2.12693 1.72971,1.67158 2.34097,-0.89831 2.18534,0.94978 -0.28828,3.42341 -1.1099,1.1099 -1.95433,2.31453 -1.87653,2.67694 0.21048,0.98041 -0.74434,3.88492 -1.92251,5.84807 -0.57093,0.95134 -1.88084,3.39706 -2.91092,5.43501 -1.03007,2.03794 -2.82698,4.0082 -3.99312,4.37824 -1.18845,0.37719 -2.99658,3.0564 -4.11429,6.09643 -1.09671,2.98283 -3.09669,6.98019 -4.44437,8.88287 -1.34768,1.90268 -3.3983,5.62364 -4.55691,8.26883 -1.35813,3.10068 -3.05768,5.04822 -4.78355,5.48134 -1.60527,0.40291 -2.62395,1.47821 -2.54453,2.68601 0.19841,3.01731 -4.15595,11.95519 -7.61121,15.62287 -1.67388,1.77676 -3.04342,3.88862 -3.04342,4.69293 0,0.80421 -1.29728,2.59031 -2.88285,3.96888 -1.58557,1.3787 -2.88355,3.41815 -2.88439,4.53231 -8.4e-4,1.11405 -3.14549,7.14025 -6.98811,13.39166 -8.3543,13.59103 -9.3785,12.19827 9.07926,12.34633 8.36413,0.0669 15.2075,0.59698 15.2075,1.17759 0,0.5806 0.51891,1.0557 1.15314,1.0557 0.63423,0 1.15314,-0.66652 1.15314,-1.48121 0,-1.43428 1.84469,-1.59191 27.85716,-2.38032 2.954,-0.0899 5.12876,-0.55466 4.83279,-1.03356 -0.49517,-0.8012 1.27517,-1.33406 3.3457,-1.00715 0.47567,0.0749 0.86486,-0.34006 0.86486,-0.92263 0,-0.58245 1.94592,-2.25473 4.32428,-3.71599 2.37835,-1.46138 5.21485,-3.70908 6.30332,-4.99495 1.91575,-2.26315 1.94388,-2.21069 0.87958,1.63908 -0.80572,2.91456 -0.71829,4.21922 0.32724,4.8832 2.05989,1.30836 2.68723,1.16929 4.45665,-0.98813 1.39772,-1.70422 1.31014,-1.85967 -0.74961,-1.3298 -4.54848,1.17021 -2.55696,-10.47893 5.55412,-32.4879 2.74575,-7.45044 4.97772,-10.37826 7.91167,-10.37826 2.48197,0 3.19219,12.31173 0.84558,14.65838 -1.5236,1.52364 -2.43324,14.17014 -1.01922,14.17014 0.53842,0 1.21626,-0.9081 1.5063,-2.018 0.29005,-1.1099 0.58756,4.07924 0.66113,11.53141 0.0736,7.45217 -0.29529,13.54941 -0.81968,13.54941 -0.5244,0 -0.83323,-3.37294 -0.68631,-7.49542 0.20653,-5.79499 -0.10044,-7.49542 -1.35284,-7.49542 -0.89098,0 -1.62316,0.9081 -1.62707,2.018 -0.003,1.1099 -0.76374,3.46853 -1.68851,5.24149 -1.5751,3.01973 -1.51997,3.29521 0.87196,4.35679 2.55336,1.13331 2.55336,1.13331 -0.04,0.6325 -1.42639,-0.27548 -2.93659,0.0992 -3.35602,0.83234 -0.41943,0.73317 -0.34152,0.95203 0.17312,0.48616 1.9266,-1.74378 3.90675,2.88124 2.03495,4.75302 -1.53832,1.5384 -1.49073,1.8245 0.42896,2.57877 3.36923,1.32392 3.62371,1.21068 4.85499,-2.16053 1.1582,-3.17113 1.1582,-3.17113 1.24923,-0.0946 0.18739,6.33339 -0.21341,6.51939 -14.11932,6.55064 -11.48793,0.0254 -22.24274,-1.5226 -15.19473,-2.18762 1.26845,-0.11958 2.73404,-0.14322 3.25685,-0.0519 0.52281,0.0911 0.59593,-0.40867 0.16249,-1.11002 -0.89181,-1.44292 -6.44876,-0.41063 -7.57189,1.40661 -0.40115,0.6491 -8.45988,1.42493 -18.31903,1.76361 -12.72766,0.43727 -17.38399,0.25069 -16.81268,-0.67367 0.49789,-0.80569 -0.27605,-1.27848 -2.09275,-1.27848 -1.58556,0 -3.20355,0.51891 -3.59552,1.15314 -0.39198,0.63423 -1.33071,1.14518 -2.08606,1.1355 -0.84888,-0.0115 -0.7128,-0.49286 0.35635,-1.262 1.37577,-0.98963 1.25779,-1.06216 -0.57658,-0.35436 -4.21212,1.62524 -35.21404,2.68094 -44.97249,1.53137 z m 50.81895,-89.71171 c -0.34756,-0.56239 0.0759,-1.6099 0.94094,-2.32784 0.86508,-0.71795 1.57288,-2.69132 1.57288,-4.38528 0,-1.74897 1.05887,-3.93729 2.45042,-5.06414 3.31715,-2.68604 3.15527,-4.71823 -0.30663,-3.84935 -1.51637,0.38059 -3.10374,0.13102 -3.52747,-0.5546 -0.42373,-0.68562 -0.23718,-1.24658 0.41458,-1.24658 0.65175,0 0.88996,-0.76886 0.52935,-1.70859 -0.51213,-1.33457 -1.16574,-1.43559 -2.98582,-0.46152 -1.68707,0.90288 -2.11386,0.89706 -1.54639,-0.0211 0.43156,-0.69827 0.0363,-1.26819 -0.87948,-1.26819 -1.77307,0 -3.02833,3.09004 -2.22506,5.47742 0.26675,0.79279 1.33543,1.44144 2.37486,1.44144 1.56168,0 1.45441,0.43543 -0.61774,2.50762 -2.33512,2.33511 -2.37257,2.6129 -0.54455,4.03876 1.79199,1.39784 1.76207,1.46368 -0.3432,0.75635 -2.26703,-0.76177 -2.26932,-0.73283 -0.13417,1.69961 1.19465,1.36105 2.67726,2.16249 3.29467,1.78091 0.67661,-0.41824 0.81356,0.27975 0.34476,1.75693 -0.47886,1.50865 -0.27858,2.45065 0.52108,2.45065 0.71439,0 1.01453,-0.4601 0.66697,-1.02249 z"
       id="path4275"
       inkscape:connector-curvature="0" />
  </g>
</svg>
