<?xml version="1.0" encoding="UTF-8" standalone="no"?>
<!-- Created with Inkscape (http://www.inkscape.org/) -->

<svg
   xmlns:dc="http://purl.org/dc/elements/1.1/"
   xmlns:cc="http://creativecommons.org/ns#"
   xmlns:rdf="http://www.w3.org/1999/02/22-rdf-syntax-ns#"
   xmlns:svg="http://www.w3.org/2000/svg"
   xmlns="http://www.w3.org/2000/svg"
   xmlns:sodipodi="http://sodipodi.sourceforge.net/DTD/sodipodi-0.dtd"
   xmlns:inkscape="http://www.inkscape.org/namespaces/inkscape"
   width="134.1019mm"
   height="162.41737mm"
   viewBox="0 0 475.16421 575.49463"
   id="svg3347"
   version="1.1"
   inkscape:version="0.91 r13725"
   sodipodi:docname="morbius.svg">
  <defs
     id="defs3349" />
  <sodipodi:namedview
     id="base"
     pagecolor="#000000"
     bordercolor="#666666"
     borderopacity="1.0"
     inkscape:pageopacity="1"
     inkscape:pageshadow="2"
     inkscape:zoom="0.49497475"
     inkscape:cx="632.80482"
     inkscape:cy="-59.577133"
     inkscape:document-units="px"
     inkscape:current-layer="layer1"
     showgrid="false"
     inkscape:snap-global="false"
     inkscape:window-width="1680"
     inkscape:window-height="998"
     inkscape:window-x="-8"
     inkscape:window-y="-8"
     inkscape:window-maximized="1"
     fit-margin-top="0"
     fit-margin-left="0"
     fit-margin-right="0"
     fit-margin-bottom="0" />
  <metadata
     id="metadata3352">
    <rdf:RDF>
      <cc:Work
         rdf:about="">
        <dc:format>image/svg+xml</dc:format>
        <dc:type
           rdf:resource="http://purl.org/dc/dcmitype/StillImage" />
        <dc:title></dc:title>
      </cc:Work>
    </rdf:RDF>
  </metadata>
  <g
     inkscape:label="Ebene 1"
     inkscape:groupmode="layer"
     id="layer1"
     transform="translate(-154.90516,-368.87519)">
    <path
       style="fill:#ffffff;fill-opacity:1;stroke:none;stroke-opacity:1"
       d="m 199.24198,939.80863 c -2.96454,-2.2776 -5.43145,-4.9242 -5.48203,-5.8812 -0.38475,-7.2814 -5.93327,-17.5314 -8.87837,-16.4012 -1.82766,0.7014 -4.14259,-0.052 -5.14424,-1.6715 -1.00167,-1.6209 -2.47892,-2.2891 -3.28282,-1.4853 -2.42208,2.4221 0.96599,8.451 5.40095,9.6109 4.31926,1.1295 7.54684,6.3282 4.89518,7.8846 -2.3023,1.3516 -11.22501,-2.482 -11.22501,-4.8224 0,-1.1274 -3.29536,-4.0863 -7.32302,-6.5757 -10.23263,-6.324 -15.5369,-14.81 -12.39848,-19.8352 1.3301,-2.13 3.0448,-9.4842 3.8104,-16.343 2.33468,-20.9152 15.53595,-38.7411 26.99355,-36.4496 6.50451,1.301 6.58344,1.4605 3.24412,6.5569 -4.88682,7.4582 -8.97974,41.2544 -6.15715,50.841 2.11972,7.1992 2.23078,7.2686 2.41628,1.5098 0.10694,-3.3198 1.64158,-8.8345 3.4103,-12.2549 2.34182,-4.5285 2.84974,-9.7217 1.86881,-19.1069 -1.34709,-12.8879 -1.34709,-12.8879 7.44867,-17.3753 4.83766,-2.468 9.57543,-5.8372 10.52838,-7.4873 2.64926,-4.5871 21.83283,-18.5905 25.46763,-18.5905 5.19216,0 3.71495,3.0872 -3.52299,7.3628 -15.41787,9.1075 -27.76043,27.0712 -27.75534,40.3957 10e-4,3.9712 -1.09132,15.0499 -2.42851,24.6197 -2.24566,16.0712 -2.08128,18.1904 2.15329,27.7634 6.23807,14.1022 5.66825,15.1933 -4.0396,7.7352 z m -28.06141,-69.7345 c -0.0252,-5.235 -0.53271,-6.1067 -2.12302,-3.6458 -2.76334,4.2758 -2.76334,13.566 0,11.8582 1.18581,-0.7329 2.14117,-4.4285 2.12302,-8.2124 z m 76.41809,49.3309 c -2.28319,-1.6694 -3.40204,-3.7847 -2.48631,-4.7004 0.91573,-0.9159 3.282,-0.047 5.25837,1.9284 4.6601,4.66 2.61157,6.7087 -2.77206,2.772 z m -20.86729,-24.0363 c -0.88936,-0.8969 -1.58753,-4.1372 -1.55146,-7.2005 0.0576,-4.8864 0.33977,-5.0986 2.30107,-1.7289 2.45529,4.2183 1.84052,11.5416 -0.74961,8.9294 z m -2.57557,-21.5569 c 1.92052,-8.2457 11.30896,-24.6318 14.11286,-24.6318 2.32312,0 1.48677,1.9031 -4.88372,11.1129 -2.1772,3.1476 -3.95853,7.6373 -3.95853,9.9772 0,2.34 -1.51634,5.5128 -3.36962,7.0509 -2.96413,2.4598 -3.19289,2.0377 -1.90099,-3.5092 z m -62.13504,-23.7631 c -0.67119,-0.6712 0.23324,-4.6994 2.00987,-8.9514 1.77661,-4.2521 3.00275,-12.1772 2.72471,-17.6114 -1.22778,-23.9973 -0.42595,-32.4231 4.08285,-42.9041 2.5781,-5.993 4.68745,-13.0716 4.68745,-15.7304 0,-2.6588 2.84665,-12.6661 6.32586,-22.23862 3.47923,-9.5725 6.87843,-21.09765 7.55374,-25.61147 0.67533,-4.5138 2.6796,-11.01425 4.45393,-14.44547 1.77435,-3.43119 4.31799,-11.38065 5.65253,-17.66544 2.36376,-11.13173 14.20018,-37.56223 16.01072,-35.75169 1.15659,1.15659 -4.53769,28.56909 -6.64167,31.97342 -3.46808,5.61148 -4.93181,17.14573 -2.17584,17.14573 3.0325,0 1.93913,8.13947 -5.76053,42.88375 -4.14635,18.71019 -5.27969,21.08079 -14.94595,31.26249 -22.38725,23.5807 -23.46221,33.6868 -2.90792,27.3382 18.49264,-5.7118 18.32197,-5.7618 9.5657,2.8026 -11.30006,11.0524 -23.52637,30.5504 -23.66722,37.7435 -0.0828,4.2263 -5.25606,11.4724 -6.96823,9.7603 z m 114.37271,-19.3012 c -0.65136,-0.6514 -0.41245,-4.7748 0.5309,-9.1632 0.94335,-4.3883 2.83869,-13.5575 4.21187,-20.376 2.43079,-12.0702 4.90283,-15.3649 7.14474,-9.5225 0.95443,2.4872 -0.03,8.1908 -6.1081,35.3949 -1.04682,4.6851 -3.3193,6.1269 -5.77941,3.6668 z m -10.99363,-29.2081 c -1.48423,-5.6757 2.28887,-22.9163 5.44168,-24.8649 1.30511,-0.8066 1.50935,3.411 0.54996,11.3558 -1.87588,15.5342 -4.13189,20.6208 -5.99164,13.5091 z m 358.73113,-30.5155 c -11.60736,-60.95244 -30.86748,-118.04269 -39.82322,-118.04269 -1.60618,0 -4.12816,-1.45532 -5.60437,-3.23404 -2.14756,-2.58767 -2.13354,-3.23405 0.0701,-3.23405 1.85216,0 1.47613,-1.41224 -1.14817,-4.31206 -2.14631,-2.37163 -4.87576,-4.31206 -6.06543,-4.31206 -1.1897,0 -10.49892,-3.76124 -20.68716,-8.35829 -10.18824,-4.59706 -27.80829,-11.88102 -39.15567,-16.18661 -24.35369,-9.2406 -30.08963,-12.82397 -26.44624,-16.52156 1.92676,-1.95541 8.44677,-0.0379 28.0284,8.24326 14.03464,5.9353 27.94308,11.46806 30.90762,12.29503 6.93326,1.93406 46.71433,21.95378 54.3641,27.35856 19.03937,15.96411 0.39486,25.21407 9.77782,33.51737 2.38838,4.36989 -2.42107,4.24365 1.54969,12.02705 1.72709,3.31109 3.75298,9.61748 4.50196,14.0142 0.74901,4.39673 3.11814,16.24087 5.26477,26.32031 2.14661,10.07944 5.04921,24.14758 6.45018,31.26248 1.40099,7.1149 3.05414,15.1191 3.6737,17.7872 0.61956,2.6681 0.17723,4.8511 -0.98278,4.8511 -1.16008,0 -3.264,-6.0638 -4.67536,-13.4752 z m -351.30414,-22.0993 c -1.53802,-7.11492 -3.34189,-15.2639 -4.00858,-18.10884 -0.83434,-3.56037 -0.44213,-4.69675 1.25831,-3.64583 1.35875,0.83977 2.47046,4.44401 2.47046,8.00944 0,3.56543 1.03002,8.4072 2.28895,10.75952 1.25893,2.35234 1.95108,6.89701 1.53811,10.09941 -0.55852,4.3311 -1.46715,2.5089 -3.54725,-7.1137 z m 7.76238,-8.62414 c -4.55819,-14.62238 -4.39591,-21.7287 0.3913,-17.13383 3.94814,3.78955 4.34852,5.65094 2.78231,12.93619 -1.43634,6.68128 -2.11823,7.58321 -3.17361,4.19764 z m 260.21258,-94.96274 c -6.70584,-11.44264 -6.558,-11.80017 3.4051,-8.23578 4.15036,1.48484 6.2272,2.75446 4.61518,2.8214 -2.06582,0.0858 -2.67089,2.34902 -2.04996,7.6678 1.11967,9.59065 0.92848,9.51848 -5.97032,-2.25342 z m -320.71324,4.05504 c -3.55374,-3.55374 39.80326,-22.28392 51.58327,-22.28392 1.99862,0 4.90534,-1.69787 6.45936,-3.77305 2.57006,-3.43195 2.71501,-3.33449 1.60325,1.07802 -0.67223,2.66808 -2.80696,4.86344 -4.74383,4.8786 -7.40331,0.0578 -38.2828,11.26498 -44.85855,16.28055 -7.54541,5.75516 -7.9531,5.91022 -10.0435,3.8198 z m 131.52479,-56.87361 c -14.1218,-11.10822 -14.73317,-30.09123 -0.96911,-30.09123 2.42952,0 2.0616,5.97654 -0.42032,6.82744 -2.82696,0.9692 3.71206,19.62704 7.6568,21.8471 3.35879,1.8903 4.16802,5.82195 1.1983,5.82195 -1.0259,0 -4.38545,-1.98236 -7.46567,-4.40526 z M 331.76126,565.2425 c -2.49942,-3.8146 -4.84924,-14.48432 -6.67927,-30.32854 -1.55282,-13.44395 -3.43225,-25.42885 -4.17649,-26.63308 -2.79886,-4.52861 1.2492,-17.00194 5.51773,-17.00194 7.14133,0 10.51988,7.50859 8.22343,18.27602 -1.35882,6.37108 -1.26723,10.902 0.27879,13.79075 1.26637,2.36625 2.30249,8.24691 2.30249,13.06814 0,10.33126 0.16947,10.40099 7.89045,3.24549 4.7509,-4.403 5.34713,-5.89704 2.94563,-7.38126 -3.0005,-1.85442 -1.4236,-10.87747 4.33919,-24.82891 2.75905,-6.67953 2.67947,5.67017 -0.0834,12.937 -1.48193,3.89774 -1.41947,7.04848 0.19965,10.07395 1.70389,3.18377 1.70397,5.05447 3e-4,6.75814 -1.29567,1.29567 -2.35577,6.08512 -2.35577,10.6432 0,6.69677 -0.72419,8.16584 -3.77305,7.65391 -2.69077,-0.45179 -3.96438,1.02194 -4.44004,5.13778 -1.08889,9.42173 -5.67121,11.48557 -10.18977,4.58935 z m 101.23321,-18.36483 c 1.65232,-10.33295 2.22117,-11.31185 5.42347,-9.33273 4.69366,2.90086 0.88566,18.41492 -4.52003,18.41492 -1.56064,0 -1.86557,-3.06534 -0.90344,-9.08219 z M 291.58378,503.10216 c -17.28483,-3.44191 -24.76565,-6.95674 -21.58212,-10.14027 2.63029,-2.63029 14.05039,-0.28804 12.31177,2.52513 -0.65455,1.05908 6.82491,3.83782 16.62106,6.17493 20.06173,4.78626 14.71426,5.83398 -7.35071,1.44021 z m 164.74181,-9.17702 c -1.58181,-3.35183 -1.88163,-6.455 -0.73452,-7.60212 1.14714,-1.14714 2.55119,0.85181 3.43967,4.89699 1.92094,8.74599 0.71485,9.95207 -2.70515,2.70513 z m -67.82157,-16.08916 c 3.63886,-1.75309 5.57733,-1.71506 7.43831,0.14596 1.9185,1.9185 0.74842,2.4822 -4.92142,2.37097 -6.98552,-0.13712 -7.13873,-0.29025 -2.51689,-2.51689 z m -72.91224,-3.66355 c 1.22754,-2.29367 2.25504,-12.23836 2.28333,-22.09931 0.0282,-9.86096 1.08974,-21.80985 2.35878,-26.55312 1.26906,-4.74327 2.94378,-12.91251 3.72163,-18.15388 2.73946,-18.45942 8.05088,-11.07631 9.18232,12.76381 1.50107,31.62825 -0.32301,48.58662 -5.73972,53.36176 -7.14071,6.29492 -15.05519,6.75126 -11.80634,0.68074 z m 105.7838,-4.27577 c -5.43057,-3.59503 -0.26116,-5.57444 14.1319,-5.41121 7.60874,0.0862 13.83406,-0.53918 13.83406,-1.38993 0,-7.61538 -9.3351,-30.01941 -12.48381,-29.96085 -3.27279,0.0608 -3.22024,0.42127 0.46825,3.21178 5.96748,4.51468 2.7946,6.19276 -6.13621,3.24534 -9.84082,-3.24776 -11.48397,-6.0401 -4.57474,-7.77422 5.32462,-1.33639 5.47826,-1.88432 5.47826,-19.53674 0,-28.42959 -7.95433,-39.08452 -29.68906,-39.76889 -5.88544,-0.18542 -5.88544,-0.18542 0.58265,-2.1335 21.48042,-6.46988 35.94392,7.96144 43.06615,42.97036 3.44711,16.94403 13.89241,42.48892 14.01321,34.27052 0.0748,-5.09401 4.8582,-4.77878 8.17923,0.539 2.32812,3.72795 2.1532,4.31207 -1.29134,4.31207 -2.19134,0 -5.11238,2.47594 -6.49118,5.5021 -3.97283,8.71942 -31.32424,17.06337 -39.08737,11.92417 z m 33.40761,-19.41983 c -1.56334,-4.92562 -5.44165,-6.11706 -5.44165,-1.6717 0,3.06875 4.57093,8.43711 5.98221,7.02584 0.48377,-0.48377 0.24052,-2.89313 -0.54056,-5.35414 z m 31.97314,7.42904 c 1.50818,-3.93032 -0.99667,-3.95323 -15.85448,-0.1451 -2.96455,0.75983 1.27898,-2.13404 9.43004,-6.43082 16.75989,-8.83489 22.87823,-7.77645 15.11947,2.61557 -5.23247,7.00831 -10.84576,9.56495 -8.69503,3.96026 z M 352.32016,427.19985 c -9.17312,-1.64563 -10.1769,-4.91389 -1.50923,-4.91389 5.65359,0 7.97732,0.94205 7.97732,3.23404 0,1.77873 -0.24255,3.10193 -0.53901,2.94044 -0.29645,-0.16149 -2.96454,-0.72876 -5.92908,-1.26059 z"
       id="path4243"
       inkscape:connector-curvature="0"
       sodipodi:nodetypes="ccsccccsccssssssssssssssccccccccccsscsssscscssssssssssssssssccsssscsssscsssssssssscccsssssccsscssssssssssssssssscsssssssscsssssssssscssssccssssssssssssscscccsssssssssscssssccscsssssssscsssccsssss" />
    <path
       style="fill:#ffffff;fill-opacity:1"
       d="m 348.41338,902.06222 c -6.83032,-0.80461 -10.12065,-2.05509 -9.22417,-3.50562 0.35373,-0.57235 -0.30313,-1.04864 -1.45971,-1.05843 -1.72624,-0.0146 -1.80114,-0.20868 -0.4182,-1.08357 1.34189,-0.84893 0.92951,-1.4957 -2.02691,-3.17889 -4.33598,-2.46862 -4.6764,-4.72337 -1.26582,-8.3842 1.76652,-1.89614 2.8156,-2.28579 3.71978,-1.38163 1.5829,1.58291 3.5017,1.65618 2.53802,0.0969 -0.64611,-1.04542 0.87964,-1.66593 3.19668,-1.30008 1.19962,0.1894 0.55011,-2.58253 -0.83816,-3.57704 -0.62082,-0.44474 -0.7765,-1.16088 -0.34596,-1.59142 1.12063,-1.12063 4.07978,2.14067 3.50553,3.86346 -0.28028,0.84078 0.52938,1.44261 1.94084,1.44261 1.61168,0 2.42173,-0.74524 2.42173,-2.22799 0,-1.22539 0.6172,-2.43372 1.37156,-2.68518 2.37437,-0.79145 0.0987,-4.13115 -4.20744,-6.17452 -4.25338,-2.01836 -5.0635,-3.31515 -2.90457,-4.64943 0.67877,-0.41951 1.73126,-2.07028 2.33886,-3.66839 0.60759,-1.59809 2.06442,-3.1566 3.23738,-3.46335 1.51501,-0.39617 1.98239,-1.34378 1.61381,-3.2719 -1.18182,-6.1823 6.32737,-5.54713 9.49326,0.803 1.70367,3.41723 5.06442,4.03955 7.12563,1.31947 2.24666,-2.96482 2.0814,-3.88004 -0.70063,-3.88004 -1.3164,0 -2.10694,-0.46362 -1.75672,-1.03028 0.3502,-0.56665 -0.40356,-1.30232 -1.67504,-1.63482 -1.39414,-0.36457 -2.3118,-1.58682 -2.3118,-3.07912 0,-2.14825 -0.31971,-2.30349 -2.42441,-1.17708 -1.33343,0.71362 -2.72835,0.99357 -3.09981,0.62211 -0.37147,-0.37147 -0.14467,-0.6754 0.50399,-0.6754 0.64867,0 3.15036,-3.98799 5.55934,-8.8622 2.40896,-4.87423 5.09405,-9.71285 5.96686,-10.75249 0.8728,-1.03965 2.38407,-2.93647 3.35836,-4.21514 1.6313,-2.1409 1.72969,-1.73242 1.24342,5.16277 -0.45554,6.45962 -0.21694,7.70552 1.7379,9.07474 1.24628,0.87293 2.26596,2.31124 2.26596,3.19627 0,0.88501 0.52151,1.93144 1.15891,2.32537 0.75475,0.46646 0.74443,-0.37395 -0.0296,-2.40979 -0.65369,-1.71933 -0.89238,-4.05912 -0.53042,-5.19954 0.36195,-1.14043 0.13371,-2.39759 -0.5072,-2.79369 -0.76244,-0.47123 -0.7788,-1.73678 -0.0473,-3.6608 1.59395,-4.19241 1.39787,-5.13118 -0.91624,-4.38675 -1.70031,0.54695 -1.74962,0.45349 -0.30032,-0.56931 1.10573,-0.78034 2.13753,-0.82007 2.84795,-0.10961 1.42945,1.42945 3.32135,1.45417 2.44234,0.032 -0.36783,-0.59515 -0.10148,-1.4327 0.59186,-1.86122 0.69334,-0.42851 0.95752,-1.56904 0.58704,-2.53449 -0.53748,-1.40065 -0.025,-1.60466 2.53621,-1.00954 1.76541,0.41021 2.64858,0.33763 1.96261,-0.1613 -0.68596,-0.49893 -1.66228,-1.95332 -2.16957,-3.232 -0.59582,-1.50176 -1.11611,-1.8057 -1.46957,-0.8585 -0.30096,0.80649 -1.53602,1.99556 -2.74458,2.64237 -2.72352,1.45758 -1.78293,-2.06283 1.16554,-4.36237 1.35169,-1.05419 1.41961,-1.42552 0.26578,-1.45305 -1.70482,-0.0407 -1.23181,-2.93217 0.48435,-2.96083 0.58605,-0.009 1.64386,-0.38629 2.35068,-0.83665 0.84927,-0.54115 1.10782,0.10857 0.76236,1.9158 -0.28753,1.50405 0.004,3.06031 0.64825,3.45836 0.70718,0.43706 1.09586,-0.77515 0.98129,-3.06042 -0.13798,-2.75203 -0.7195,-3.7443 -2.13206,-3.63802 -1.15857,0.0872 -1.70608,-0.46955 -1.35684,-1.37965 0.32498,-0.84689 1.40831,-1.21002 2.43475,-0.81614 1.27872,0.49068 1.6548,0.19906 1.21897,-0.94522 -0.96212,-2.52612 1.07637,-6.88579 3.21965,-6.88579 1.17806,0 1.66105,-0.63697 1.2652,-1.66854 -0.35216,-0.9177 -0.27735,-1.83312 0.16623,-2.03426 0.44359,-0.20114 1.69515,-2.19653 2.78125,-4.43422 1.86001,-3.83214 2.01982,-3.91656 2.75105,-1.45303 0.94317,3.1776 3.34233,3.53764 2.51596,0.37758 -0.41056,-1.56993 -0.10404,-2.05325 1.02686,-1.61928 0.88664,0.34023 1.61206,0.0396 1.61206,-0.66819 0,-0.70773 -0.39232,-1.22485 -0.87182,-1.14914 -2.57883,0.40719 -4.9902,-0.27897 -4.39049,-1.24933 0.37787,-0.61141 1.45493,-0.81698 2.39347,-0.45684 0.93852,0.36015 1.70641,0.0449 1.70641,-0.70059 0,-0.74546 0.52309,-1.03211 1.16243,-0.63697 0.63934,0.39513 1.16244,0.22041 1.16244,-0.38824 0,-0.60868 -0.8235,-1.42268 -1.83002,-1.80892 -1.64763,-0.63226 -1.63793,-0.89433 0.0973,-2.62962 1.06006,-1.06004 2.43358,-3.02316 3.05226,-4.36245 0.61868,-1.33929 2.40241,-4.52746 3.96386,-7.08481 1.56145,-2.55735 3.76313,-6.51862 4.89263,-8.80283 1.98641,-4.01716 12.90866,-20.82143 14.30036,-22.00158 3.82169,-3.24079 1.97867,-4.65225 -6.20464,-4.75177 -32.28347,-0.39264 -34.55761,-0.51411 -34.05704,-1.81922 0.62329,-1.62513 -2.32467,-5.92978 -3.35519,-4.89928 -0.40237,0.4024 0.0305,1.4937 0.96191,2.42512 2.99561,2.99563 0.41737,4.02932 -11.87181,4.75975 -17.47439,1.03864 -29.36662,9.98407 -31.96814,24.04672 -1.83749,9.9326 -8.93038,20.92376 -13.50267,20.92376 -1.49579,0 -1.20951,-33.86071 0.29565,-34.96938 0.50602,-0.37271 0.44014,-1.94199 -0.14636,-3.48729 -4.37012,-11.51401 -0.23101,-16.86012 12.82059,-16.55918 14.7458,0.34 14.87781,0.35652 14.57628,1.82359 -0.39054,1.90022 7.11978,2.04935 8.99059,0.17854 0.87988,-0.87988 1.77259,-1.10186 1.9838,-0.49329 0.23196,0.66834 4.51979,0.39093 10.82849,-0.70059 8.36133,-1.44667 10.9011,-1.52192 12.73395,-0.37728 1.67403,1.04545 2.40783,1.07476 2.72974,0.10903 0.67994,-2.03982 5.80886,-1.56078 7.05086,0.65854 0.83706,1.49576 1.49018,1.66582 2.67324,0.69612 1.5524,-1.27248 14.94051,-2.62902 14.93245,-1.51303 -0.002,0.31967 4.83561,0.43994 10.7509,0.26726 10.98566,-0.32069 15.50592,0.83479 17.1443,4.38247 0.44289,0.959 1.49368,3.05138 2.3351,4.64972 1.37047,2.6033 1.33951,2.74881 -0.29706,1.39659 -1.05749,-0.87376 -2.10988,-1.05162 -2.4988,-0.42231 -0.36955,0.59793 -0.0223,1.62628 0.77163,2.28518 1.63808,1.3595 4.84534,-0.52957 5.04048,-2.96886 0.28636,-3.57962 0.57731,-3.98352 2.37303,-3.29444 1.51901,0.58291 1.63602,0.4044 0.57383,-0.87545 -0.79832,-0.96192 -2.5679,-1.37182 -4.40568,-1.02051 -2.11934,0.40515 -2.81648,0.17457 -2.24889,-0.74381 0.48348,-0.78228 0.0754,-1.33098 -0.98965,-1.33098 -0.99674,0 -1.81226,-0.52309 -1.81226,-1.16242 0,-1.71606 5.02677,-1.41181 7.58537,0.4591 1.83785,1.34384 2.42329,1.35721 3.41887,0.078 1.22283,-1.57116 5.16693,-2.18977 11.95377,-1.87485 4.53506,0.21041 5.29506,4.25411 1.45304,7.73109 -1.27867,1.15719 -2.32486,2.98801 -2.32486,4.0685 0,1.0805 -1.04619,2.91133 -2.32486,4.06851 -1.27868,1.15719 -2.32487,2.83842 -2.32487,3.73607 0,0.91699 -0.57537,1.27647 -1.31323,0.82046 -0.79872,-0.49364 -1.09803,-0.17894 -0.76395,0.80321 0.86695,2.54871 -3.31496,9.53213 -9.68956,16.18071 -4.24376,4.42617 -5.44424,6.36004 -4.3629,7.02835 1.95898,1.21071 -0.87665,6.88534 -3.44063,6.88534 -0.95752,0 -1.41713,0.32382 -1.02136,0.71961 1.2941,1.29409 -2.50137,4.01191 -5.95533,4.26443 -3.57948,0.2617 -3.83335,2.61874 -0.38058,3.53317 1.0644,0.2819 0.4659,0.57323 -1.33001,0.6474 -1.79591,0.0742 -2.97862,-0.32898 -2.62826,-0.89588 0.35036,-0.56689 -0.2398,-1.74385 -1.31147,-2.61547 -1.71064,-1.39129 -1.85097,-1.32482 -1.14964,0.54458 0.43938,1.17112 0.79886,3.1887 0.79886,4.48348 0,1.615 0.54747,2.14408 1.74365,1.68505 2.35983,-0.90554 2.20295,0.95744 -0.29061,3.451 -1.11884,1.11883 -1.97008,2.33317 -1.89165,2.69849 0.2122,0.98831 -0.75034,3.91622 -1.93797,5.89519 -0.57555,0.95901 -1.89601,3.42448 -2.93439,5.47882 -1.03837,2.05434 -2.84976,4.04043 -4.02528,4.41353 -1.19802,0.38024 -3.02072,3.08104 -4.14745,6.14549 -1.10555,3.00692 -3.12163,7.03641 -4.48018,8.95442 -1.35853,1.91801 -3.42565,5.66898 -4.59361,8.33549 -1.36906,3.12568 -3.08232,5.08883 -4.82208,5.52549 -1.61822,0.40614 -2.6451,1.49011 -2.56504,2.7076 0.20001,3.04165 -4.18943,12.05151 -7.67253,15.74877 -1.68736,1.79112 -3.06794,3.91994 -3.06794,4.73071 0,0.81075 -1.30773,2.61118 -2.90607,4.00092 -1.59834,1.38974 -2.90677,3.44568 -2.90762,4.56875 -7.2e-4,1.12306 -3.17084,7.19786 -7.04442,13.49954 -8.4216,13.70057 -9.45405,12.29661 9.15241,12.44582 8.43151,0.0676 15.33001,0.60181 15.33001,1.1871 0,0.58529 0.5231,1.06417 1.16243,1.06417 0.63934,0 1.16244,-0.67191 1.16244,-1.49314 0,-1.4458 1.85956,-1.60469 28.08158,-2.39949 2.9778,-0.0903 5.17007,-0.55908 4.87173,-1.04182 -0.49917,-0.80766 1.28543,-1.34492 3.37264,-1.01536 0.47951,0.0757 0.87183,-0.34278 0.87183,-0.92997 0,-0.58719 1.9616,-2.27291 4.35912,-3.74604 2.39751,-1.47312 5.25685,-3.73894 6.3541,-5.03514 1.93118,-2.28134 1.95954,-2.22849 0.88667,1.65236 -0.81222,2.93796 -0.72408,4.25313 0.32987,4.92253 2.07648,1.31886 2.70888,1.17863 4.49255,-0.99617 1.40898,-1.71798 1.32069,-1.87457 -0.75565,-1.34042 -4.58512,1.17955 -2.57755,-10.56337 5.59887,-32.74971 2.76786,-7.51044 5.01782,-10.46188 7.9754,-10.46188 2.50197,0 3.21791,12.41098 0.8524,14.77649 -1.53587,1.53588 -2.45284,14.28428 -1.02744,14.28428 0.54277,0 1.22607,-0.91541 1.51844,-2.03425 0.29239,-1.11884 0.5923,4.1121 0.66646,11.6243 0.0742,7.51221 -0.29766,13.65857 -0.82628,13.65857 -0.52863,0 -0.83995,-3.40011 -0.69184,-7.5558 0.20819,-5.84162 -0.10125,-7.5558 -1.36375,-7.5558 -0.89814,0 -1.63623,0.91541 -1.64017,2.03425 -0.004,1.11884 -0.76989,3.49654 -1.70211,5.28376 -1.58779,3.04406 -1.53221,3.32174 0.87898,4.39191 2.57393,1.1424 2.57393,1.1424 -0.0403,0.63752 -1.43788,-0.27768 -2.96024,0.0999 -3.38305,0.83904 -0.42282,0.73915 -0.34428,0.9597 0.17451,0.49014 1.94212,-1.75785 3.93822,2.90444 2.05134,4.79133 -1.55072,1.55072 -1.50274,1.83916 0.43241,2.59954 3.39638,1.33456 3.65291,1.2204 4.8941,-2.178 1.16754,-3.19668 1.16754,-3.19668 1.2593,-0.0951 0.18891,6.38447 -0.21513,6.57192 -14.23307,6.60341 -11.58047,0.026 -22.42193,-1.53482 -15.31714,-2.20518 1.27867,-0.12063 2.75606,-0.14444 3.28309,-0.0529 0.52703,0.0915 0.60073,-0.41198 0.1638,-1.11896 -0.89899,-1.45458 -6.50071,-0.41398 -7.63288,1.41792 -0.40439,0.6543 -8.52803,1.43638 -18.46662,1.77783 -12.83019,0.4408 -17.52404,0.2527 -16.94813,-0.67915 0.50191,-0.81214 -0.27828,-1.28877 -2.10959,-1.28877 -1.59834,0 -3.22937,0.52309 -3.6245,1.16242 -0.39514,0.63934 -1.34142,1.15443 -2.10285,1.14464 -0.85573,-0.0104 -0.71855,-0.49681 0.3592,-1.27209 1.38687,-0.99763 1.26794,-1.07073 -0.58122,-0.35723 -4.24606,1.63836 -35.49773,2.70248 -45.3348,1.54365 z m 0.58121,-9.77719 c 0,-0.95901 0.5231,-1.74364 1.16244,-1.74364 2.80774,0 0.83548,-2.33323 -2.03426,-2.40658 -2.68292,-0.0686 -2.83544,-0.22316 -0.94897,-0.96189 1.24536,-0.48769 1.7241,-1.20382 1.07355,-1.60588 -1.63226,-1.00879 -6.34351,0.35865 -5.56662,1.61569 0.34902,0.56471 -0.73294,0.50683 -2.40436,-0.12864 -2.18465,-0.8306 -2.81502,-0.79308 -2.24237,0.13349 0.43811,0.70887 0.0757,1.77289 -0.80539,2.36446 -1.02983,0.69145 0.0587,0.79754 3.04776,0.29704 2.55734,-0.4282 4.26553,-0.36855 3.79597,0.13255 -0.46957,0.5011 0.0536,1.60005 1.16244,2.4421 2.66547,2.02406 3.75981,1.98369 3.75981,-0.1387 z m 101.83819,-0.29061 c 1.82744,-2.40735 2.12733,-5.39221 0.43677,-4.3474 -0.64977,0.40158 -0.88414,1.2111 -0.52084,1.79894 0.3633,0.58784 -0.0392,0.80029 -0.89438,0.47211 -0.98277,-0.37712 -1.55493,0.26936 -1.55493,1.75696 0,2.88469 0.53485,2.95212 2.53338,0.31939 z m -0.91916,-6.04662 c 0.33974,-1.01923 0.002,-1.22556 -0.99672,-0.60847 -1.08524,0.67072 -1.3017,0.38889 -0.76849,-1.00063 0.40824,-1.06388 0.23559,-1.93434 -0.38367,-1.93434 -0.61927,0 -1.12596,0.55397 -1.12596,1.23105 0,0.67706 -0.56171,0.88387 -1.24824,0.45957 -0.68654,-0.4243 -0.55986,0.33083 0.28151,1.67808 1.63425,2.61684 3.40324,2.68972 4.24157,0.17474 z m 16.27673,-11.50809 c 0.45561,-3.06301 -2.26893,-3.33976 -5.09151,-0.51718 -1.8651,1.8651 -1.93298,1.83178 -1.16945,-0.57391 0.63986,-2.01601 0.42732,-2.40686 -1.00907,-1.85566 -1.00081,0.38404 -1.81966,1.96469 -1.81966,3.51255 0,3.95536 8.49584,3.42651 9.08969,-0.5658 z m -107.83858,-0.78343 c 3.07416,-1.5897 3.42956,-1.5897 3.42956,0 0,0.97543 0.5231,1.7735 1.16244,1.7735 1.71725,0 1.41169,-1.83332 -0.58122,-3.48729 -1.95577,-1.62314 -2.37466,-5.81215 -0.58122,-5.81215 2.28766,0 1.1745,-4.15408 -1.16028,-4.32995 -2.77844,-0.2093 -5.41705,3.77598 -3.18955,4.81739 1.10125,0.51485 1.11453,0.83069 0.0561,1.33131 -0.76325,0.36097 -1.07058,1.48281 -0.68295,2.49296 0.41571,1.08331 -0.17899,2.48287 -1.44991,3.41219 -2.88187,2.10727 -1.25261,1.99967 2.9971,-0.19796 z m 14.63213,-24.26379 c 0.1282,-2.21955 -0.3847,-2.72993 -2.61464,-2.60173 -3.28988,0.18912 -3.25345,0.0969 -0.94909,2.40129 1.66061,1.66062 1.6342,1.8283 -0.29061,1.84448 -1.69185,0.0142 -1.78811,0.22619 -0.47905,1.05489 2.40803,1.52441 4.15222,0.43808 4.33339,-2.69893 z m 8.98714,-2.20763 c 0.40374,0.40374 0.73405,-0.72491 0.73405,-2.50809 0,-2.62846 0.30436,-2.98955 1.6079,-1.90771 1.2399,1.02903 1.76363,0.92858 2.28837,-0.43889 0.37427,-0.97531 0.043,-1.8169 -0.73606,-1.87017 -0.77911,-0.0532 -2.59352,-0.22741 -4.03203,-0.38696 -1.54926,-0.17182 -2.61548,0.34154 -2.61548,1.2593 0,0.85215 0.65388,1.55739 1.45305,1.56718 0.89988,0.0104 1.01051,0.34293 0.2906,0.87182 -3.04454,2.2368 -4.75576,5.35964 -2.18708,3.99131 1.35443,-0.72151 2.79294,-0.98152 3.19668,-0.57779 z m -8.08119,-3.8883 c 0.40312,-1.05052 0.45909,-2.18388 0.12438,-2.51859 -0.33473,-0.33473 -0.60858,10e-4 -0.60858,0.74757 0,0.7459 -1.0462,1.35618 -2.32487,1.35618 -1.27867,0 -2.32486,0.5231 -2.32486,1.16243 0,1.9345 4.34767,1.3014 5.13393,-0.74759 z m 33.23085,-31.80901 c 0.74638,-1.39459 0.3437,-1.87663 -1.7096,-2.04657 -1.78222,-0.1475 -2.88119,0.52434 -3.26625,1.99678 -0.72742,2.78167 3.4912,2.82389 4.97585,0.0498 z m -7.47896,0.14026 c -0.35035,-0.5669 0.0765,-1.62288 0.94852,-2.34662 0.87206,-0.72372 1.58554,-2.71299 1.58554,-4.42058 0,-1.7631 1.06741,-3.96903 2.47017,-5.10492 3.34387,-2.7077 3.1807,-4.75626 -0.30909,-3.88038 -1.52859,0.38366 -3.12875,0.13207 -3.5559,-0.55906 -0.42714,-0.69115 -0.23909,-1.25662 0.41792,-1.25662 0.657,0 0.89713,-0.77507 0.53362,-1.72237 -0.51624,-1.34531 -1.17513,-1.44715 -3.00988,-0.46523 -1.70064,0.91016 -2.13087,0.90429 -1.55884,-0.0213 0.43503,-0.7039 0.0366,-1.2784 -0.88658,-1.2784 -1.78735,0 -3.0527,3.11493 -2.24298,5.52154 0.2689,0.79918 1.34619,1.45304 2.394,1.45304 1.57427,0 1.46612,0.43897 -0.62272,2.52781 -2.35392,2.35393 -2.39169,2.63399 -0.54892,4.07136 1.80642,1.40902 1.77626,1.47547 -0.34599,0.76238 -2.28529,-0.76788 -2.28759,-0.73873 -0.13524,1.71337 1.20428,1.37201 2.69883,2.17986 3.32121,1.79519 0.68207,-0.42153 0.82013,0.28205 0.34753,1.77106 -0.48271,1.52089 -0.28081,2.47043 0.52528,2.47043 0.72015,0 1.02271,-0.46382 0.67235,-1.03072 z m 13.28078,-21.52394 c -0.008,-1.82088 -5.71418,-8.54847 -5.76458,-6.79673 -0.023,0.79917 0.54534,1.45304 1.26297,1.45304 0.92063,0 0.89236,0.49692 -0.096,1.68786 -0.77045,0.92833 -1.06183,2.75587 -0.64755,4.0612 0.58242,1.835 0.34053,2.21494 -1.06639,1.67506 -1.0008,-0.38405 -1.81965,-0.1192 -1.81965,0.58853 0,0.70773 0.78464,1.2868 1.74365,1.2868 0.959,0 1.74364,0.60313 1.74364,1.34029 0,0.73717 1.04619,0.13403 2.32486,-1.34029 1.27867,-1.47432 2.32227,-3.25443 2.3191,-3.95576 z m 11.63008,-6.01188 c 0,-0.42096 -1.07615,-0.48398 -2.39144,-0.14001 -1.75298,0.4584 -2.73928,-0.13808 -3.69434,-2.23421 -0.78529,-1.72352 -1.95114,-2.61083 -2.93458,-2.23345 -0.89741,0.34437 -2.64712,0.62614 -3.88825,0.62614 -2.09589,0 -2.13021,0.19286 -0.48206,2.70827 0.97598,1.48953 1.46494,3.01783 1.08658,3.39619 -0.37837,0.37836 0.70822,0.53468 2.41465,0.34737 1.70643,-0.18733 3.71421,0.32458 4.46176,1.13756 1.30508,1.41932 5.42768,-1.32103 5.42768,-3.60786 z m -0.20537,-4.36847 c 0.25701,-1.32521 -0.41537,-1.93793 -2.12662,-1.93793 -2.17575,0 -2.40247,-0.45526 -1.73652,-3.48729 0.92363,-4.20524 -1.35467,-4.86059 -2.40124,-0.6907 -0.43362,1.72763 0.064,3.96567 1.30209,5.85508 2.1517,3.28389 4.35355,3.39964 4.96229,0.26084 z M 325.77183,898.969 c 0.0825,-2.78302 4.3951,-6.34631 6.35404,-5.25003 1.94952,1.09101 1.9255,1.30377 -0.41103,3.64029 -2.40662,2.40662 -5.99545,3.37871 -5.94301,1.60974 z"
       id="path4256"
       inkscape:connector-curvature="0"
       sodipodi:nodetypes="cssssscscsscsssssscsssscsssssssssssssccscsccsssscssscccccscssssssssssssscsssscsssssccsssscsssssssssccsssscsssssssscsssssscsssscsscsscscsccsssssssssscssssscccssssssssssscsssscssssssssssccccscsscssccssssscssssscsssscssscsssssssssssscsssssscssccssscsssssccssccssssssssssssccssscssssscssssscsscccssccsssssccscssssscsssssscsssss" />
  </g>
</svg>
