<?xml version="1.0" encoding="UTF-8" standalone="no"?>
<!-- Created with Inkscape (http://www.inkscape.org/) -->

<svg
   xmlns:dc="http://purl.org/dc/elements/1.1/"
   xmlns:cc="http://creativecommons.org/ns#"
   xmlns:rdf="http://www.w3.org/1999/02/22-rdf-syntax-ns#"
   xmlns:svg="http://www.w3.org/2000/svg"
   xmlns="http://www.w3.org/2000/svg"
   xmlns:sodipodi="http://sodipodi.sourceforge.net/DTD/sodipodi-0.dtd"
   xmlns:inkscape="http://www.inkscape.org/namespaces/inkscape"
   width="518.94"
   height="867.25659"
   viewBox="0 0 518.93999 867.25659"
   id="svg3347"
   version="1.1"
   inkscape:version="0.48.5 r10040"
   sodipodi:docname="morbius.svg"
   inkscape:export-filename="C:\Users\mk.1\Desktop\ackcon15\Morbius\logo\morbius.png"
   inkscape:export-xdpi="120.01628"
   inkscape:export-ydpi="120.01628">
  <defs
     id="defs3349" />
  <sodipodi:namedview
     id="base"
     pagecolor="#000000"
     bordercolor="#000000"
     borderopacity="1"
     inkscape:pageopacity="1"
     inkscape:pageshadow="2"
     inkscape:zoom="0.7"
     inkscape:cx="410.83264"
     inkscape:cy="846.99942"
     inkscape:document-units="px"
     inkscape:current-layer="layer1"
     showgrid="false"
     inkscape:snap-global="false"
     inkscape:window-width="1680"
     inkscape:window-height="998"
     inkscape:window-x="-8"
     inkscape:window-y="-8"
     inkscape:window-maximized="1"
     fit-margin-top="0"
     fit-margin-left="0"
     fit-margin-right="0"
     fit-margin-bottom="0" />
  <metadata
     id="metadata3352">
    <rdf:RDF>
      <cc:Work
         rdf:about="">
        <dc:format>image/svg+xml</dc:format>
        <dc:type
           rdf:resource="http://purl.org/dc/dcmitype/StillImage" />
        <dc:title></dc:title>
      </cc:Work>
    </rdf:RDF>
  </metadata>
  <g
     inkscape:label="Ebene 1"
     inkscape:groupmode="layer"
     id="layer1"
     transform="translate(-327.26774,37.127361)">
    <rect
       style="fill:#000000;fill-opacity:1;stroke:none"
       id="rect3811"
       width="518.94"
       height="867.26001"
       x="327.26773"
       y="-37.130768"
       rx="4.9594507" />
    <path
       style="fill:#ffffff;fill-opacity:1;stroke:none"
       d="m 379.24198,533.80863 c -2.96454,-2.2776 -5.43145,-4.9242 -5.48203,-5.8812 -0.38475,-7.2814 -5.93327,-17.5314 -8.87837,-16.4012 -1.82766,0.7014 -4.14259,-0.052 -5.14424,-1.6715 -1.00167,-1.6209 -2.47892,-2.2891 -3.28282,-1.4853 -2.42208,2.4221 0.96599,8.451 5.40095,9.6109 4.31926,1.1295 7.54684,6.3282 4.89518,7.8846 -2.3023,1.3516 -11.22501,-2.482 -11.22501,-4.8224 0,-1.1274 -3.29536,-4.0863 -7.32302,-6.5757 -10.23263,-6.324 -15.5369,-14.81 -12.39848,-19.8352 1.3301,-2.13 3.0448,-9.4842 3.8104,-16.343 2.33468,-20.9152 15.53595,-38.7411 26.99355,-36.4496 6.50451,1.301 6.58344,1.4605 3.24412,6.5569 -4.88682,7.4582 -8.97974,41.2544 -6.15715,50.841 2.11972,7.1992 2.23078,7.2686 2.41628,1.5098 0.10694,-3.3198 1.64158,-8.8345 3.4103,-12.2549 2.34182,-4.5285 2.84974,-9.7217 1.86881,-19.1069 -1.34709,-12.8879 -1.34709,-12.8879 7.44867,-17.3753 4.83766,-2.468 9.57543,-5.8372 10.52838,-7.4873 2.64926,-4.5871 21.83283,-18.5905 25.46763,-18.5905 5.19216,0 3.71495,3.0872 -3.52299,7.3628 -15.41787,9.1075 -27.76043,27.0712 -27.75534,40.3957 10e-4,3.9712 -1.09132,15.0499 -2.42851,24.6197 -2.24566,16.0712 -2.08128,18.1904 2.15329,27.7634 6.23807,14.1022 5.66825,15.1933 -4.0396,7.7352 z m -28.06141,-69.7345 c -0.0252,-5.235 -0.53271,-6.1067 -2.12302,-3.6458 -2.76334,4.2758 -2.76334,13.566 0,11.8582 1.18581,-0.7329 2.14117,-4.4285 2.12302,-8.2124 z m 76.41809,49.3309 c -2.28319,-1.6694 -3.40204,-3.7847 -2.48631,-4.7004 0.91573,-0.9159 3.282,-0.047 5.25837,1.9284 4.6601,4.66 2.61157,6.7087 -2.77206,2.772 z m -20.86729,-24.0363 c -0.88936,-0.8969 -1.58753,-4.1372 -1.55146,-7.2005 0.0576,-4.8864 0.33977,-5.0986 2.30107,-1.7289 2.45529,4.2183 1.84052,11.5416 -0.74961,8.9294 z m -2.57557,-21.5569 c 1.92052,-8.2457 11.30896,-24.6318 14.11286,-24.6318 2.32312,0 1.48677,1.9031 -4.88372,11.1129 -2.1772,3.1476 -3.95853,7.6373 -3.95853,9.9772 0,2.34 -1.51634,5.5128 -3.36962,7.0509 -2.96413,2.4598 -3.19289,2.0377 -1.90099,-3.5092 z m -62.13504,-23.7631 c -0.67119,-0.6712 0.23324,-4.6994 2.00987,-8.9514 1.77661,-4.2521 3.00275,-12.1772 2.72471,-17.6114 -1.22778,-23.9973 -0.42595,-32.4231 4.08285,-42.9041 2.5781,-5.993 4.68745,-13.0716 4.68745,-15.7304 0,-2.6588 2.84665,-12.6661 6.32586,-22.23862 3.47923,-9.5725 6.87843,-21.09765 7.55374,-25.61147 0.67533,-4.5138 2.6796,-11.01425 4.45393,-14.44547 1.77435,-3.43119 4.31799,-11.38065 5.65253,-17.66544 2.36376,-11.13173 14.20018,-37.56223 16.01072,-35.75169 1.15659,1.15659 -4.53769,28.56909 -6.64167,31.97342 -3.46808,5.61148 -4.93181,17.14573 -2.17584,17.14573 3.0325,0 1.93913,8.13947 -5.76053,42.88375 -4.14635,18.71019 -5.27969,21.08079 -14.94595,31.26249 -22.38725,23.5807 -23.46221,33.6868 -2.90792,27.3382 18.49264,-5.7118 18.32197,-5.7618 9.5657,2.8026 -11.30006,11.0524 -23.52637,30.5504 -23.66722,37.7435 -0.0828,4.2263 -5.25606,11.4724 -6.96823,9.7603 z m 114.37271,-19.3012 c -0.65136,-0.6514 -0.41245,-4.7748 0.5309,-9.1632 0.94335,-4.3883 2.83869,-13.5575 4.21187,-20.376 2.43079,-12.0702 4.90283,-15.3649 7.14474,-9.5225 0.95443,2.4872 -0.03,8.1908 -6.1081,35.3949 -1.04682,4.6851 -3.3193,6.1269 -5.77941,3.6668 z m -10.99363,-29.2081 c -1.48423,-5.6757 2.28887,-22.9163 5.44168,-24.8649 1.30511,-0.8066 1.50935,3.411 0.54996,11.3558 -1.87588,15.5342 -4.13189,20.6208 -5.99164,13.5091 z m 358.73113,-30.5155 c -11.60736,-60.95244 -30.86748,-118.04269 -39.82322,-118.04269 -1.60618,0 -4.12816,-1.45532 -5.60437,-3.23404 -2.14756,-2.58767 -2.13354,-3.23405 0.0701,-3.23405 1.85216,0 1.47613,-1.41224 -1.14817,-4.31206 -2.14631,-2.37163 -4.87576,-4.31206 -6.06543,-4.31206 -1.1897,0 -10.49892,-3.76124 -20.68716,-8.35829 -10.18824,-4.59706 -27.80829,-11.88102 -39.15567,-16.18661 -24.35369,-9.2406 -30.08963,-12.82397 -26.44624,-16.52156 1.92676,-1.95541 8.44677,-0.0379 28.0284,8.24326 14.03464,5.9353 27.94308,11.46806 30.90762,12.29503 6.93326,1.93406 46.71433,21.95378 54.3641,27.35856 19.03937,15.96411 0.39486,25.21407 9.77782,33.51737 2.38838,4.36989 -2.42107,4.24365 1.54969,12.02705 1.72709,3.31109 3.75298,9.61748 4.50196,14.0142 0.74901,4.39673 3.11814,16.24087 5.26477,26.32031 2.14661,10.07944 5.04921,24.14758 6.45018,31.26248 1.40099,7.1149 3.05414,15.1191 3.6737,17.7872 0.61956,2.6681 0.17723,4.8511 -0.98278,4.8511 -1.16008,0 -3.264,-6.0638 -4.67536,-13.4752 z m -351.30414,-22.0993 c -1.53802,-7.11492 -3.34189,-15.2639 -4.00858,-18.10884 -0.83434,-3.56037 -0.44213,-4.69675 1.25831,-3.64583 1.35875,0.83977 2.47046,4.44401 2.47046,8.00944 0,3.56543 1.03002,8.4072 2.28895,10.75952 1.25893,2.35234 1.95108,6.89701 1.53811,10.09941 -0.55852,4.3311 -1.46715,2.5089 -3.54725,-7.1137 z m 7.76238,-8.62414 c -4.55819,-14.62238 -4.39591,-21.7287 0.3913,-17.13383 3.94814,3.78955 4.34852,5.65094 2.78231,12.93619 -1.43634,6.68128 -2.11823,7.58321 -3.17361,4.19764 z m 260.21258,-94.96274 c -6.70584,-11.44264 -6.558,-11.80017 3.4051,-8.23578 4.15036,1.48484 6.2272,2.75446 4.61518,2.8214 -2.06582,0.0858 -2.67089,2.34902 -2.04996,7.6678 1.11967,9.59065 0.92848,9.51848 -5.97032,-2.25342 z m -320.71324,4.05504 c -3.55374,-3.55374 39.80326,-22.28392 51.58327,-22.28392 1.99862,0 4.90534,-1.69787 6.45936,-3.77305 2.57006,-3.43195 2.71501,-3.33449 1.60325,1.07802 -0.67223,2.66808 -2.80696,4.86344 -4.74383,4.8786 -7.40331,0.0578 -38.2828,11.26498 -44.85855,16.28055 -7.54541,5.75516 -7.9531,5.91022 -10.0435,3.8198 z m 131.52479,-56.87361 c -14.1218,-11.10822 -14.73317,-30.09123 -0.96911,-30.09123 2.42952,0 2.0616,5.97654 -0.42032,6.82744 -2.82696,0.9692 3.71206,19.62704 7.6568,21.8471 3.35879,1.8903 4.16802,5.82195 1.1983,5.82195 -1.0259,0 -4.38545,-1.98236 -7.46567,-4.40526 z M 511.76126,159.2425 c -2.49942,-3.8146 -4.84924,-14.48432 -6.67927,-30.32854 -1.55282,-13.44395 -3.43225,-25.42885 -4.17649,-26.63308 -2.79886,-4.52861 1.2492,-17.00194 5.51773,-17.00194 7.14133,0 10.51988,7.50859 8.22343,18.27602 -1.35882,6.37108 -1.26723,10.902 0.27879,13.79075 1.26637,2.36625 2.30249,8.24691 2.30249,13.06814 0,10.33126 0.16947,10.40099 7.89045,3.24549 4.7509,-4.403 5.34713,-5.89704 2.94563,-7.38126 -3.0005,-1.85442 -1.4236,-10.87747 4.33919,-24.82891 2.75905,-6.67953 2.67947,5.67017 -0.0834,12.937 -1.48193,3.89774 -1.41947,7.04848 0.19965,10.07395 1.70389,3.18377 1.70397,5.05447 3e-4,6.75814 -1.29567,1.29567 -2.35577,6.08512 -2.35577,10.6432 0,6.69677 -0.72419,8.16584 -3.77305,7.65391 -2.69077,-0.45179 -3.96438,1.02194 -4.44004,5.13778 -1.08889,9.42173 -5.67121,11.48557 -10.18977,4.58935 z m 101.23321,-18.36483 c 1.65232,-10.33295 2.22117,-11.31185 5.42347,-9.33273 4.69366,2.90086 0.88566,18.41492 -4.52003,18.41492 -1.56064,0 -1.86557,-3.06534 -0.90344,-9.08219 z M 471.58378,97.10216 c -17.28483,-3.44191 -24.76565,-6.95674 -21.58212,-10.14027 2.63029,-2.63029 14.05039,-0.28804 12.31177,2.52513 -0.65455,1.05908 6.82491,3.83782 16.62106,6.17493 20.06173,4.78626 14.71426,5.83398 -7.35071,1.44021 z m 164.74181,-9.17702 c -1.58181,-3.35183 -1.88163,-6.455 -0.73452,-7.60212 1.14714,-1.14714 2.55119,0.85181 3.43967,4.89699 1.92094,8.74599 0.71485,9.95207 -2.70515,2.70513 z M 568.50402,71.83598 c 3.63886,-1.75309 5.57733,-1.71506 7.43831,0.14596 1.9185,1.9185 0.74842,2.4822 -4.92142,2.37097 -6.98552,-0.13712 -7.13873,-0.29025 -2.51689,-2.51689 z m -72.91224,-3.66355 c 1.22754,-2.29367 2.25504,-12.23836 2.28333,-22.09931 0.0282,-9.86096 1.08974,-21.80985 2.35878,-26.55312 1.26906,-4.74327 2.94378,-12.91251 3.72163,-18.15388 2.73946,-18.45942 8.05088,-11.07631 9.18232,12.76381 1.50107,31.62825 -0.32301,48.58662 -5.73972,53.36176 -7.14071,6.29492 -15.05519,6.75126 -11.80634,0.68074 z m 105.7838,-4.27577 c -5.43057,-3.59503 -0.26116,-5.57444 14.1319,-5.41121 7.60874,0.0862 13.83406,-0.53918 13.83406,-1.38993 0,-7.61538 -9.3351,-30.01941 -12.48381,-29.96085 -3.27279,0.0608 -3.22024,0.42127 0.46825,3.21178 5.96748,4.51468 2.7946,6.19276 -6.13621,3.24534 -9.84082,-3.24776 -11.48397,-6.0401 -4.57474,-7.77422 5.32462,-1.33639 5.47826,-1.88432 5.47826,-19.53674 0,-28.42959 -7.95433,-39.08452 -29.68906,-39.76889 -5.88544,-0.18542 -5.88544,-0.18542 0.58265,-2.1335 21.48042,-6.46988 35.94392,7.96144 43.06615,42.97036 3.44711,16.94403 13.89241,42.48892 14.01321,34.27052 0.0748,-5.09401 4.8582,-4.77878 8.17923,0.539 2.32812,3.72795 2.1532,4.31207 -1.29134,4.31207 -2.19134,0 -5.11238,2.47594 -6.49118,5.5021 -3.97283,8.71942 -31.32424,17.06337 -39.08737,11.92417 z m 33.40761,-19.41983 c -1.56334,-4.92562 -5.44165,-6.11706 -5.44165,-1.6717 0,3.06875 4.57093,8.43711 5.98221,7.02584 0.48377,-0.48377 0.24052,-2.89313 -0.54056,-5.35414 z m 31.97314,7.42904 c 1.50818,-3.93032 -0.99667,-3.95323 -15.85448,-0.1451 -2.96455,0.75983 1.27898,-2.13404 9.43004,-6.43082 16.75989,-8.83489 22.87823,-7.77645 15.11947,2.61557 -5.23247,7.00831 -10.84576,9.56495 -8.69503,3.96026 z M 532.32016,21.19985 c -9.17312,-1.64563 -10.1769,-4.91389 -1.50923,-4.91389 5.65359,0 7.97732,0.94205 7.97732,3.23404 0,1.77873 -0.24255,3.10193 -0.53901,2.94044 -0.29645,-0.16149 -2.96454,-0.72876 -5.92908,-1.26059 z"
       id="path4243"
       inkscape:connector-curvature="0"
       sodipodi:nodetypes="ccsccccsccssssssssssssssccccccccccsscsssscscssssssssssssssssccsssscsssscsssssssssscccsssssccsscssssssssssssssssscsssssssscsssssssssscssssccssssssssssssscscccsssssssssscssssccscsssssssscsssccsssss" />
    <path
       style="fill:#ffffff;fill-opacity:1"
       d="m 385.10943,648.74021 c -0.11935,-0.049 -0.217,-0.2813 -0.217,-0.5156 l 0,-0.4262 -2.34394,0.024 c -1.28916,0.013 -2.38752,0.094 -2.44079,0.1802 -0.0541,0.088 -2.35782,0.1567 -5.21539,0.1567 -4.87855,0 -5.13599,-0.016 -5.49122,-0.3472 -0.36316,-0.3383 -0.63758,-0.348 -10.71319,-0.3818 -5.68728,-0.019 -10.55534,-0.027 -10.81793,-0.018 -0.26258,0.01 -0.47742,-0.042 -0.47742,-0.1152 0,-0.073 -0.52734,-0.185 -1.17187,-0.2496 -1.9401,-0.1947 -2.02581,-0.2097 -2.41914,-0.4208 -0.20857,-0.112 -0.65778,-0.2036 -0.99826,-0.2036 -0.34049,0 -0.61905,-0.078 -0.61905,-0.1737 0,-0.096 -0.45955,-0.1735 -1.03142,-0.1735 -0.56729,0 -1.0797,-0.078 -1.13871,-0.1737 -0.059,-0.095 -0.29149,-0.1735 -0.51661,-0.1735 -0.22513,0 -0.44101,-0.095 -0.47974,-0.2113 -0.0493,-0.1479 -0.56154,-0.2055 -1.70716,-0.1924 -1.74242,0.02 -2.01807,-0.061 -2.84596,-0.8369 -0.28981,-0.2717 -0.72222,-0.4968 -0.96093,-0.5003 -1.06519,-0.015 -1.28931,-0.7983 -0.69445,-2.4258 0.19097,-0.5225 0.34722,-1.2395 0.34722,-1.5932 0,-0.3538 0.0781,-0.6916 0.17362,-0.7505 0.0955,-0.059 0.17361,-0.259 0.17361,-0.4443 0,-0.2774 0.12278,-0.337 0.69445,-0.337 0.38194,0 0.69444,-0.084 0.69444,-0.1869 0,-0.2207 2.22461,-0.1223 3.55902,0.1577 0.9263,0.1943 15.47398,0.2832 15.95796,0.097 0.21079,-0.081 0.27462,-0.3634 0.27462,-1.2152 0,-0.6105 -0.0196,-1.1174 -0.0434,-1.1265 -0.0239,-0.01 -2.11371,-0.084 -4.64408,-0.166 -12.64614,-0.4108 -14.87242,-0.5005 -15.15924,-0.6106 -0.28599,-0.1097 -0.30211,-0.3212 -0.20237,-2.6578 0.0596,-1.3962 0.14836,-3.4989 0.19724,-4.6726 l 0.0889,-2.134 1.50701,0.086 c 0.82885,0.048 1.6232,0.014 1.76519,-0.073 0.17747,-0.1097 0.26234,-0.4737 0.27151,-1.1642 0.008,-0.5525 0.0784,-3.0944 0.15791,-5.6486 l 0.1446,-4.6441 1.52415,0 1.52415,0 0.11885,-0.7926 c 0.0654,-0.436 0.0847,-1.6859 0.0428,-2.7778 l -0.076,-1.9852 0.64362,0 c 0.35636,0 0.67948,-0.097 0.72394,-0.217 0.0442,-0.1193 0.0971,-2.792 0.1176,-5.93913 0.0205,-3.14715 0.0646,-5.76623 0.0979,-5.8202 0.0333,-0.0538 0.081,-8.76799 0.10601,-19.36461 0.0474,-20.08911 0.0325,-19.70056 0.75137,-19.70056 0.1874,0 0.27283,-0.16308 0.27283,-0.52083 l 0,-0.52083 1.14472,0 c 0.99871,0 1.1563,-0.0443 1.23552,-0.34722 0.0797,-0.3048 0.2368,-0.34722 1.28582,-0.34722 1.07929,0 1.19503,-0.0337 1.19503,-0.34723 0,-0.39178 0.0133,-0.39485 1.5625,-0.36126 1.11889,0.0242 1.79338,-0.16998 1.41097,-0.40633 -0.13412,-0.0829 -0.13512,-0.20216 -0.004,-0.41293 0.15512,-0.24838 0.4081,-0.28625 1.56221,-0.23383 0.75743,0.0344 1.47331,-0.0132 1.59087,-0.10567 0.11755,-0.0925 0.40904,-0.21252 0.64776,-0.26668 0.59038,-0.13397 9.3262,-0.22965 9.45232,-0.10354 0.0553,0.0553 0.0991,12.30008 0.0973,27.21063 -0.002,21.63663 0.0408,27.11314 0.21487,27.12544 0.68635,0.048 2.08433,-0.055 2.95243,-0.2193 l 0.99826,-0.1885 0,-2.3923 0,-2.39227 1.17188,-0.18547 c 0.64453,-0.1021 1.40624,-0.20677 1.6927,-0.23277 l 0.52083,-0.047 0.0444,-14.45313 0.0444,-14.45304 1.21428,0 1.21427,0 0.008,-6.2066 c 0.009,-6.8166 0.14476,-14.19731 0.26694,-14.5157 0.0501,-0.13062 0.67679,-0.22134 1.7547,-0.25404 0.9222,-0.028 1.80219,-0.11801 1.95555,-0.20008 0.3609,-0.19315 0.38172,-0.53575 0.18441,-3.03537 -0.14742,-1.86753 -0.13398,-2.10387 0.13349,-2.34921 0.16355,-0.15005 0.49269,-0.28521 0.7314,-0.30038 0.23872,-0.0152 0.72601,-0.12254 1.08289,-0.23861 0.54694,-0.17788 0.79238,-0.16303 1.5625,0.0945 1.19687,0.4003 1.93849,0.59498 2.99694,0.78668 1.16388,0.21081 2.36434,0.51131 3.86284,0.96694 0.33359,0.10144 0.39062,0.0545 0.39062,-0.3213 0,-0.987 0.006,-0.9893 2.70955,-0.9893 1.5501,0 2.49877,-0.0659 2.49877,-0.17361 0,-0.0955 -0.002,-0.21445 -0.004,-0.26436 -0.002,-0.0499 0.18708,-0.28178 0.42056,-0.51526 0.23347,-0.23347 0.47489,-0.58326 0.53648,-0.7773 0.0616,-0.19404 0.18482,-0.3528 0.27387,-0.3528 0.0891,0 0.16192,-0.12276 0.16192,-0.27281 0,-0.15005 0.11718,-0.39001 0.26041,-0.53324 0.14323,-0.14323 0.26042,-0.21464 0.26042,-0.15871 0,0.0559 0.45846,-0.12972 1.0188,-0.41258 0.69862,-0.35266 1.47613,-0.57054 2.47395,-0.69326 2.6151,-0.32163 9.13266,-0.17346 13.26067,0.30146 0.99751,0.11477 1.04407,0.14192 1.09842,0.64067 0.0312,0.28646 0.12888,0.59505 0.21702,0.68576 0.0881,0.0907 0.16025,0.41636 0.16025,0.72365 0,0.73154 0.15376,1.10795 0.4526,1.10795 0.13301,0 0.24184,0.0781 0.24184,0.17361 0,0.0955 0.15625,0.17361 0.34722,0.17361 0.19097,0 0.34722,0.0669 0.34722,0.1487 0,0.0818 0.72266,0.20222 1.6059,0.26764 0.88325,0.0654 1.88894,0.16315 2.23488,0.21718 l 0.62899,0.0983 -0.0794,30.11071 c -0.063,23.87818 -0.0346,30.16464 0.13694,30.37144 0.38805,0.4676 0.50197,-0.088 0.50476,-2.4621 0.002,-1.24972 0.0542,-4.04268 0.11715,-6.20654 l 0.1145,-3.93435 0.56574,0 c 1.21728,0 1.11498,1.43593 1.11498,-15.64893 0,-12.19915 0.0456,-15.45225 0.21701,-15.50508 0.11936,-0.0364 0.43186,-0.11392 0.69444,-0.17145 l 0.47743,-0.10467 0,-3.38207 0,-3.38209 0.69114,0 c 0.77963,0 0.79122,-0.0227 0.9314,-1.82292 0.0752,-0.96589 0.43663,-1.9619 1.51194,-4.16666 0.18628,-0.38193 0.33849,-0.77747 0.33822,-0.87896 -3.5e-4,-0.10148 0.18477,-0.57023 0.4112,-1.04166 0.59547,-1.23976 1.04475,-2.26575 1.55371,-3.5481 0.24634,-0.62066 0.61036,-1.46157 0.80895,-1.8687 0.19857,-0.40713 0.44459,-0.954 0.5467,-1.21527 l 0.18565,-0.47505 0.4655,0.95486 c 0.25602,0.52517 0.64307,1.38454 0.86011,1.90971 0.21703,0.52518 0.46732,1.11111 0.55619,1.30208 0.1761,0.37845 1.66575,3.81177 2.67408,6.16318 0.34804,0.81163 0.70759,1.61135 0.79899,1.77715 0.0914,0.16581 0.16618,0.85916 0.16618,1.5408 l 0,1.23933 0.48561,-0.0971 c 0.9038,-0.18077 0.93246,-0.0787 0.91173,3.24794 -0.0199,3.20086 0.06,3.57657 0.7604,3.57657 0.24647,0 0.27281,1.97809 0.27281,20.48608 0,14.30267 0.0555,20.486 0.18386,20.486 0.10112,0 0.13557,0.078 0.0766,0.1736 -0.12463,0.2017 0.90992,0.2274 2.49188,0.062 l 1.06714,-0.1115 0,-15.06913 c 0,-9.85884 -0.06,-15.10625 -0.17362,-15.17644 -0.10464,-0.0644 -0.1736,-1.27115 -0.1736,-3.03709 l 0,-2.92984 2.81973,0.0318 2.81973,0.0318 0.16026,-0.75658 0.16026,-0.75659 1.49048,0.096 c 2.46021,0.15849 4.57685,0.27339 8.86893,0.48145 2.50413,0.12142 4.24748,0.28097 4.51387,0.41315 0.23872,0.11839 1.05903,0.25998 1.82292,0.31455 1.29675,0.0928 2.0449,0.26695 2.99478,0.69731 l 0.39062,0.17706 0,17.66098 0,17.66097 1.51909,0.1981 c 0.8355,0.109 1.76878,0.2371 2.07395,0.2845 0.42938,0.067 0.59624,0.01 0.73785,-0.2556 0.12473,-0.233 0.18298,-5.84284 0.18298,-17.61943 l 0,-17.27746 0.65104,-0.18077 c 0.35808,-0.0994 0.81281,-0.1813 1.01051,-0.18183 0.19771,0 1.09615,-0.16008 1.99653,-0.35449 1.25746,-0.27158 2.17847,-0.34601 3.97199,-0.32084 1.6335,0.0227 2.35498,-0.0273 2.40162,-0.16728 0.0777,-0.23307 1.17744,-0.24967 2.29212,-0.0349 0.73159,0.14113 0.804,0.11961 1.19705,-0.35479 l 0.41835,-0.50502 3.53383,0 3.53385,0 0,-27.04208 0,-27.04208 -0.39063,-0.17138 c -0.37398,-0.16407 -0.38801,-0.24534 -0.32936,-1.90747 0.0337,-0.95487 0.0969,-1.79471 0.14045,-1.86632 0.0436,-0.0716 0.21933,-0.13021 0.3906,-0.13021 0.27175,0 0.32607,-0.22681 0.42655,-1.78099 0.0634,-0.97955 0.11135,-6.10006 0.10671,-11.3789 -0.005,-5.27885 0.0377,-9.6727 0.0943,-9.76411 0.0565,-0.0914 0.4976,-0.16621 0.98023,-0.16621 l 0.87752,0 -0.0776,-0.52847 c -0.0971,-0.66129 0.0422,-0.74591 1.16711,-0.70915 l 0.90449,0.0296 0.12111,-1.95673 c 0.0666,-1.07619 0.19502,-3.12859 0.28535,-4.56088 0.0903,-1.43228 0.31991,-5.65102 0.51019,-9.37497 0.52509,-10.27651 0.68946,-10.978 1.03743,-4.42707 0.10904,2.05295 0.26824,4.74825 0.35376,5.98957 0.0855,1.24131 0.23924,4.05381 0.34158,6.24998 0.34886,7.48646 0.50305,9.14121 0.88248,9.47028 0.32615,0.28287 0.33742,0.59711 0.33742,9.40853 l 0,9.1159 0.54253,0.10851 c 0.2984,0.0597 0.83348,0.1085 1.18909,0.1085 l 0.64656,0 0.11209,1.6927 c 0.0616,0.93099 0.11249,2.26278 0.11298,2.95954 l 0.002,1.26683 2.47395,-0.0268 2.47396,-0.0268 0.11453,1.36417 c 0.23052,2.74582 0.33171,5.05826 0.3112,7.11093 l -0.021,2.10092 0.92612,0.0912 c 0.50936,0.0502 1.23861,0.0813 1.62056,0.0692 l 0.69444,-0.022 0.0868,-1.76586 c 0.0478,-0.97122 0.12829,-1.80696 0.17898,-1.85721 0.0507,-0.0503 0.81211,-0.14569 1.69207,-0.21212 1.00528,-0.0759 1.67257,-0.20833 1.79542,-0.35633 0.10751,-0.12956 0.14127,-0.23555 0.075,-0.23555 -0.0663,0 -0.003,-0.11719 0.13994,-0.26042 0.20494,-0.20495 0.74432,-0.26042 2.53211,-0.26042 2.22284,0 2.59194,0.0725 3.32386,0.65244 0.1516,0.12012 0.97191,0.27637 1.82292,0.34722 l 1.54728,0.12881 0.0446,12.60957 0.0445,12.60956 2.03879,0.19846 c 1.12134,0.10916 2.34048,0.22935 2.70921,0.2671 0.41523,0.0425 0.84839,0.23914 1.13797,0.51659 0.28678,0.27476 0.66569,0.44795 0.98003,0.44795 0.28187,0 0.76323,0.0719 1.06968,0.15979 0.30644,0.0879 0.85281,0.18384 1.21411,0.21323 0.36132,0.0294 0.73507,0.12366 0.83056,0.20952 0.11177,0.1005 0.15404,2.48247 0.11868,6.6878 -0.0302,3.59243 -0.004,7.1746 0.0587,7.96037 l 0.11362,1.42866 4.06455,-0.11091 4.06457,-0.11093 0,4.2751 c 0,4.04895 0.0177,4.28459 0.33581,4.45483 0.18469,0.0988 1.14856,0.17971 2.14193,0.17971 l 1.80612,0 0.10668,-21.73645 0.1067,-21.73642 0.48575,-0.44453 c 0.96109,-0.87955 1.40385,-1.05233 3.13348,-1.22288 0.93088,-0.0918 2.09326,-0.21689 2.58305,-0.27801 l 0.89051,-0.11112 0.12895,-10.91576 0.12892,-10.91577 1.02048,0 1.02047,0 0,10.75599 0,10.75599 0.56423,0.0947 c 0.59601,0.10006 3.41223,0.44183 3.64077,0.44183 0.0738,0 0.44698,0.28253 0.8292,0.62784 0.47295,0.42728 0.69579,0.77389 0.69761,1.08506 0.005,0.82333 0.10774,0.85571 2.92028,0.91857 1.50201,0.0336 2.71683,0.13514 2.78792,0.23311 0.0693,0.0955 0.0692,1.07204 -10e-5,2.17013 -0.21222,3.36017 -0.18384,5.72534 0.0718,5.98096 0.16687,0.16687 1.25915,0.254 4.12325,0.3289 2.14293,0.0561 3.9939,0.10456 4.11326,0.10781 0.1647,0.005 0.21701,0.70388 0.21701,2.90126 0,3.60687 0.3534,16.60866 0.45425,16.71206 0.0409,0.0419 3.06086,0.12005 6.71107,0.17362 l 6.63588,0.0974 0.0453,7.24822 0.0453,7.24824 1.38699,0 1.38698,0 0,-7.17457 0,-7.17456 0.40182,-0.37748 c 0.39361,-0.36979 0.50601,-0.37754 5.51213,-0.38014 2.81067,-0.002 5.19569,-0.06 5.30004,-0.13021 0.27908,-0.18764 0.44594,-1.11612 0.56894,-3.16574 0.0874,-1.45601 0.16181,-1.82291 0.36981,-1.82291 0.17389,0 0.27434,0.20188 0.30232,0.60764 0.0986,1.4285 0.70381,3.97633 1.02077,4.29686 0.12008,0.12143 0.6363,0.21701 1.17208,0.21701 l 0.95746,0 0.0804,6.467 c 0.0442,3.55682 0.0869,6.67546 0.0949,6.93036 0.008,0.25482 0.13247,0.58127 0.27661,0.72543 0.14416,0.14416 0.26384,0.36533 0.26596,0.49153 0.002,0.12619 0.15665,0.42467 0.34336,0.66343 0.18672,0.23867 0.34124,0.60514 0.34337,0.81441 0.002,0.20919 0.0729,0.42301 0.15731,0.47516 0.3153,0.19494 0.8883,1.68127 0.89087,2.31097 0.002,0.48547 0.0458,0.58612 0.17095,0.39247 0.0926,-0.14318 0.16949,-0.50919 0.17096,-0.81335 0.004,-0.72756 0.31826,-1.54621 0.51589,-1.34164 0.14674,0.15189 0.21217,0.73035 0.43028,3.80428 0.0542,0.76393 0.17377,1.9358 0.26571,2.60415 0.0919,0.66843 0.20837,1.94057 0.25874,2.82699 0.0524,0.92174 0.20366,1.82839 0.35345,2.11808 0.14406,0.27855 0.26191,0.70565 0.26191,0.9491 0,0.31538 0.0926,0.44264 0.32212,0.44264 0.271,0 0.33966,-0.18592 0.43278,-1.17186 0.0609,-0.64456 0.11124,-2.27876 0.11192,-3.63162 0,-1.35286 0.041,-2.56376 0.0897,-2.69094 0.0716,-0.18698 0.80296,-0.21207 3.82421,-0.13097 2.05468,0.0553 3.80649,0.17235 3.89292,0.26043 0.0864,0.0881 0.18193,1.33777 0.21223,2.77719 0.0478,2.27172 0.0976,2.65948 0.37698,2.93848 0.26303,0.26263 0.38208,0.28378 0.65103,0.11581 0.20113,-0.12559 0.32915,-0.13749 0.32915,-0.0303 0,0.0963 0.27344,0.17508 0.60764,0.17508 l 0.60764,0 0,4.16666 0,4.16666 1.7361,0 c 1.60278,0 1.73611,-0.0258 1.73611,-0.33698 0,-0.18532 0.0781,-0.38527 0.17361,-0.44431 0.0955,-0.0591 0.17481,-0.27847 0.17626,-0.48767 0.003,-0.43998 0.27672,-0.94008 0.43037,-0.78644 0.0576,0.0576 0.19854,0.47895 0.31326,0.93644 0.11472,0.4575 0.28884,0.85807 0.38691,0.89013 0.0996,0.0326 0.26352,-0.48258 0.37127,-1.16685 0.10611,-0.67382 0.31864,-1.36408 0.4723,-1.53394 0.15367,-0.16978 0.35436,-0.65425 0.44601,-1.07666 0.3289,-1.51619 0.3969,-1.7175 0.54845,-1.62382 0.0846,0.0523 0.15377,0.26066 0.15377,0.4631 0,0.34828 0.211,1.13018 0.53932,1.99856 0.14562,0.38518 0.1913,0.39064 3.27639,0.39064 2.85635,0 3.13045,-0.0265 3.14873,-0.30378 0.0109,-0.16713 0.034,-0.38201 0.051,-0.47743 0.10238,-0.57339 0.28219,-2.67806 0.35809,-4.19152 0.0925,-1.84454 0.18944,-2.31894 0.47377,-2.31894 0.10577,0 0.12564,-0.33213 0.0519,-0.868 l -0.1194,-0.86808 2.36005,0 2.36003,0 0.002,-9.67882 c 0.002,-5.32328 0.06,-9.76217 0.13021,-9.86413 0.0786,-0.11424 1.05032,-0.19488 2.53202,-0.21014 1.5364,-0.0158 2.49223,-0.0976 2.64756,-0.22651 0.1337,-0.11096 0.24309,-0.13051 0.24309,-0.0434 0,0.0871 0.21484,0.15522 0.47743,0.15145 l 0.47743,-0.007 0.0498,1.59812 0.0498,1.59812 1.16544,0.0508 1.16547,0.0508 0.039,5.90281 c 0.0214,3.24651 0.0875,6.92831 0.14685,8.18188 l 0.10794,2.27906 1.51832,0.0281 1.51831,0.0273 0.10316,-5.26893 c 0.0568,-2.89786 0.17955,-5.45934 0.2729,-5.69218 0.0934,-0.23284 0.41193,-1.478 0.70793,-2.76704 0.29601,-1.28903 0.61528,-2.67691 0.7095,-3.08408 0.0942,-0.40717 0.17128,-0.93558 0.17128,-1.17423 0,-0.23865 0.0734,-0.56955 0.16313,-0.73537 0.0897,-0.16579 0.20838,-0.5163 0.26371,-0.77888 l 0.10061,-0.47743 2.77448,0 c 1.52599,0 2.7745,-0.0327 2.7745,-0.0726 0,-0.54792 -0.24991,-0.62184 -2.1019,-0.62184 l -1.89115,0 0,-0.69797 0,-0.69797 3.60243,0.0469 3.60242,0.0469 0,0.80341 0,0.80342 1.21527,0.12481 c 0.6684,0.0687 1.8598,0.15499 2.64756,0.19187 1.18022,0.0553 1.43229,0.0218 1.43229,-0.19038 0,-0.18128 -0.19261,-0.25822 -0.65104,-0.2601 -0.70894,-0.003 -1.33606,-0.30439 -0.95486,-0.45906 0.11936,-0.0484 0.21701,-0.18761 0.21701,-0.30927 0,-0.29995 1.52637,-0.44429 4.69849,-0.44429 1.6477,0 2.58609,-0.0656 2.6254,-0.18354 0.0797,-0.23923 0.6622,-0.0156 0.6622,0.2542 0,0.30233 -0.37069,0.62379 -0.71932,0.62379 -0.16646,0 -0.41319,0.15783 -0.54831,0.35071 -0.22136,0.31604 -0.36653,0.33949 -1.46776,0.23714 -1.36322,-0.12669 -2.36496,0.0225 -1.94303,0.28947 0.13824,0.0875 0.70057,0.16022 1.24961,0.16168 0.61566,0.002 0.99826,0.0767 0.99826,0.19585 0,0.13002 0.39754,0.17075 1.21528,0.12453 1.00425,-0.0568 1.21621,-0.0224 1.22069,0.19743 0.003,0.14635 0.002,2.29733 -0.002,4.77998 -0.008,4.21153 -0.088,5.50459 -0.54399,8.7226 -0.33427,2.35918 -0.15316,5.76206 0.41146,7.73098 0.14123,0.49243 0.29913,0.67859 0.63617,0.74983 0.24656,0.0523 0.62778,0.16758 0.84712,0.25649 0.21932,0.0888 0.55135,0.1616 0.73785,0.1616 0.32948,0 0.33904,-0.16175 0.33904,-5.72917 l 0,-5.72916 5.01504,0 5.01502,0 0.10458,-3.68923 c 0.0575,-2.0291 0.15416,-9.04643 0.21477,-15.59413 l 0.11021,-11.9049 -0.75934,-0.54532 c -0.41764,-0.29992 -0.8537,-0.62629 -0.96903,-0.72527 -0.11533,-0.099 -0.27452,-0.17994 -0.35378,-0.17994 -0.0793,0 -0.41458,-0.2312 -0.74517,-0.51378 -0.33059,-0.28258 -0.69873,-0.51695 -0.81809,-0.52083 -0.11935,-0.004 -0.21701,-0.072 -0.21701,-0.15133 0,-0.0794 -0.21484,-0.25514 -0.47743,-0.39063 -0.26259,-0.13549 -0.62889,-0.38306 -0.81399,-0.55017 -0.1851,-0.16709 -0.42176,-0.30381 -0.5259,-0.30381 -0.10415,0 -0.30198,-0.15625 -0.43962,-0.34722 -0.13764,-0.19098 -0.35578,-0.34723 -0.48475,-0.34723 -0.39476,0 -0.73052,-0.46848 -0.73052,-1.01928 0,-0.4907 0.0455,-0.52656 0.73163,-0.57663 0.68163,-0.0497 0.74027,-0.0949 0.85829,-0.66102 0.10433,-0.50034 0.0631,-0.65676 -0.23338,-0.88585 -0.33927,-0.26212 -0.34684,-0.3299 -0.13106,-1.17187 l 0.22904,-0.89366 3.09216,0 3.09218,0 0,-1.21527 0,-1.21528 -0.51059,0 c -0.28081,0 -0.55886,-0.0781 -0.61788,-0.17361 -0.059,-0.0955 -0.298,-0.17361 -0.53107,-0.17361 -0.26096,0 -0.42379,-0.10006 -0.42379,-0.26042 0,-0.14323 -0.0195,-0.31901 -0.0434,-0.39062 -0.0239,-0.0716 0.42535,-0.16927 0.99826,-0.21702 0.90154,-0.0751 1.04884,-0.13709 1.09495,-0.4607 0.0415,-0.29107 -0.0739,-0.41387 -0.52083,-0.55434 -0.31576,-0.0992 -0.76943,-0.20443 -1.00814,-0.23374 -0.61825,-0.0759 -0.86541,-0.33581 -0.66984,-0.70433 0.12811,-0.2414 0.39183,-0.30382 1.28359,-0.30382 0.99286,0 1.12235,-0.0387 1.12235,-0.33492 0,-0.2656 -0.19482,-0.37535 -0.94152,-0.53036 -1.01942,-0.21163 -1.38319,-0.49221 -1.21303,-0.93563 0.101,-0.26322 1.0123,-0.39445 2.02434,-0.2915 0.47825,0.0487 0.37037,-0.59931 -0.13838,-0.8311 -0.24319,-0.11082 -0.57522,-0.20397 -0.73784,-0.207 -0.41566,-0.008 -0.90328,-0.41343 -0.90328,-0.75147 0,-0.23219 0.19203,-0.28467 1.04166,-0.28467 0.90351,0 1.04167,-0.0433 1.04167,-0.32616 0,-0.20779 -0.20479,-0.40481 -0.56424,-0.54287 -1.34916,-0.51815 -1.51909,-0.61989 -1.51909,-0.90946 0,-0.25721 0.16455,-0.30484 1.05319,-0.30484 1.04612,0 1.05283,-0.003 0.99826,-0.47664 -0.0484,-0.41964 -0.15356,-0.49456 -0.87958,-0.62642 -0.75915,-0.13788 -0.82465,-0.18966 -0.82465,-0.65183 0,-0.44673 0.0622,-0.50417 0.56423,-0.52127 0.31033,-0.0106 0.74629,-0.004 0.9688,0.0142 0.327,0.0271 0.39358,-0.0405 0.34722,-0.35254 -0.0455,-0.30634 -0.24921,-0.43491 -0.98727,-0.62305 -1.2026,-0.30657 -1.27781,-0.36088 -1.06095,-0.76609 0.13882,-0.25938 0.36813,-0.33729 0.99873,-0.33934 0.45019,-0.002 0.90541,-0.06 1.01158,-0.1302 0.12436,-0.0822 0.23771,-1.41651 0.31856,-3.74992 0.0825,-2.37979 0.20979,-3.86122 0.37119,-4.31869 0.17856,-0.50609 0.24568,-1.59156 0.24568,-3.9731 0,-3.17791 0.0106,-3.27678 0.35267,-3.27678 0.19396,0 0.38455,0.0977 0.42351,0.21702 0.039,0.11935 0.0993,1.70138 0.13423,3.51561 0.0407,2.11582 0.13781,3.43458 0.27094,3.67782 0.13014,0.23781 0.21599,1.30595 0.23022,2.86457 0.0125,1.36695 0.0711,3.0713 0.13021,3.78744 l 0.10751,1.30209 0.95487,0.0261 c 0.52517,0.0144 1.05794,0.034 1.18395,0.0434 0.13214,0.01 0.20561,0.17428 0.17361,0.38837 -0.0425,0.28465 -0.29522,0.44684 -1.08421,0.69597 -1.19552,0.3775 -1.30875,0.45697 -0.96276,0.67578 0.22369,0.14147 0.22307,0.16564 -0.005,0.19483 -0.14322,0.0183 0.28646,0.0781 0.95486,0.13286 1.09246,0.0895 1.22088,0.13903 1.27076,0.49017 0.0422,0.29713 -0.0305,0.39063 -0.30382,0.39063 -0.19762,0 -0.3593,0.0781 -0.3593,0.17361 0,0.0955 -0.35401,0.17361 -0.7867,0.17361 -0.5489,0 -0.81778,0.081 -0.88949,0.2679 -0.15584,0.40609 0.045,0.50546 1.21303,0.60015 0.92284,0.0748 1.078,0.13728 1.12295,0.4521 0.0443,0.31079 -0.10186,0.4085 -0.98026,0.65497 -1.86128,0.52224 -1.84574,1.14228 0.0287,1.14721 0.94782,0.002 1.00689,0.0268 0.95487,0.39328 -0.0453,0.31909 -0.2383,0.43403 -1.05375,0.62764 -0.54905,0.13036 -0.99827,0.31172 -0.99827,0.40303 0,0.33928 0.45646,0.57688 1.21528,0.63255 0.42969,0.0315 0.84241,0.11612 0.91715,0.18799 0.30495,0.29319 -0.11887,0.67 -0.96927,0.86178 -1.12809,0.25439 -1.37729,0.40821 -1.24017,0.76553 0.082,0.21377 0.3892,0.29474 1.26454,0.33334 0.88344,0.039 1.15874,0.11242 1.16688,0.31139 0.0183,0.44834 -0.25661,0.65285 -1.03448,0.7695 -0.90841,0.13623 -1.41451,0.46971 -1.27289,0.83874 0.0831,0.21668 0.31175,0.25288 1.16519,0.18453 0.99775,-0.0799 1.56554,0.0885 1.56554,0.46437 0,0.17188 -0.77784,0.48135 -1.6493,0.65619 l -0.69444,0.13932 -0.0509,1.24741 -0.0509,1.24741 3.08912,0.0475 3.0891,0.0475 0.0928,0.80669 c 0.10884,0.94613 0.0524,1.18984 -0.27542,1.18984 -0.13229,0 -0.19998,0.1056 -0.15045,0.23467 0.055,0.14336 0.25556,0.20304 0.51538,0.15337 0.36372,-0.0695 0.42533,-0.0155 0.42533,0.37296 0,0.35456 0.0857,0.45485 0.39062,0.45692 1.04658,0.007 1.13141,1.05466 0.13021,1.60792 -0.3342,0.18467 -0.63367,0.40566 -0.6655,0.49107 -0.0318,0.0854 -0.13494,0.15529 -0.22915,0.15529 -0.20944,0 -1.77364,1.0533 -1.85418,1.24857 -0.0318,0.0772 -0.15381,0.14032 -0.27108,0.14032 -0.11727,0 -0.3665,0.13672 -0.55386,0.30382 -0.59062,0.52675 -1.9438,1.43229 -2.14035,1.43229 -0.10376,0 -0.18863,0.0687 -0.18863,0.15254 0,0.0839 -0.23178,0.24856 -0.51506,0.36589 -0.2833,0.11734 -0.56668,0.376 -0.62978,0.57478 -0.0631,0.19879 -0.0653,3.06148 -0.005,6.36152 0.0603,3.30005 0.18921,11.78131 0.28646,18.84724 0.0972,7.06595 0.25315,17.22274 0.34649,22.57058 0.0933,5.34784 0.16972,10.13298 0.16972,10.63368 l 0,0.91022 1.7361,0 1.73611,0 0,-19.35424 0,-19.35428 0.39062,-0.0806 c 0.21485,-0.0443 1.13281,-0.12369 2.03993,-0.17633 1.92129,-0.11151 4.14372,-0.31767 6.94442,-0.64417 2.34991,-0.27393 4.23069,-0.2697 5.55554,0.0125 0.52517,0.11188 1.38455,0.26952 1.90972,0.35032 0.52517,0.0808 1.1111,0.19841 1.30208,0.26137 0.34491,0.11373 0.34692,0.24841 0.30237,20.2444 l -0.045,20.12991 2.38859,0 c 1.31373,0 3.61906,0.0516 5.12296,0.114 l 2.73436,0.11346 0,-1.68794 c 0,-1.03232 0.0843,-1.83514 0.21701,-2.06707 0.22269,-0.38913 0.39938,-3.98271 0.57559,-11.70732 0.0499,-2.18447 0.15783,-3.86279 0.24856,-3.86279 0.0903,0 0.19549,-1.53788 0.24058,-3.51566 0.10102,-4.43315 0.41211,-11.48311 0.54199,-12.28297 0.16255,-1.0011 0.46404,-7.2902 0.54465,-11.36167 0.0521,-2.62883 0.14064,-3.88807 0.28582,-4.0627 0.14612,-0.17577 0.22741,-1.38512 0.26613,-3.95944 0.032,-2.12591 0.12453,-3.70638 0.217,-3.70638 0.0919,0 0.16127,-1.08815 0.16127,-2.52975 0,-2.74609 0.0871,-3.02578 0.94246,-3.02578 0.24555,0 0.44642,-0.0781 0.44642,-0.17361 0,-0.0955 0.23438,-0.17361 0.52084,-0.17361 0.28645,0 0.52083,-0.0675 0.52083,-0.15002 0,-0.11679 1.28296,-0.71641 1.73611,-0.81142 0.0478,-0.01 0.32118,-0.12001 0.60764,-0.24444 0.28645,-0.12443 0.71613,-0.30375 0.95485,-0.39849 0.23872,-0.0947 0.56969,-0.24126 0.73549,-0.32561 0.16581,-0.0843 0.46338,-0.15335 0.66128,-0.15335 0.19791,0 0.31154,-0.0781 0.25253,-0.17361 -0.0626,-0.10129 0.11394,-0.17361 0.42379,-0.17361 0.29208,0 0.53107,-0.0766 0.53107,-0.17031 0,-0.0937 0.20963,-0.22291 0.46585,-0.28722 0.25623,-0.0643 0.64942,-0.21216 0.8738,-0.32856 0.23427,-0.12155 0.73671,-0.17457 1.18036,-0.12456 0.60642,0.0684 0.79566,0.0265 0.8805,-0.19459 0.0594,-0.15491 0.16328,-0.24754 0.23075,-0.20584 0.0675,0.0417 0.84703,-0.62281 1.73235,-1.47669 0.88535,-0.85387 1.66696,-1.55249 1.73692,-1.55249 0.07,0 0.6075,-0.44922 1.19446,-0.99826 1.63359,-1.52803 2.17718,-1.94374 2.55567,-1.9544 0.19097,-0.005 0.48192,-0.11207 0.64654,-0.23711 0.27138,-0.20611 0.30065,-0.72477 0.31327,-5.55002 0.008,-2.9304 0.0824,-5.32267 0.16638,-5.32267 0.0839,0 0.19914,-0.14697 0.25615,-0.3266 0.15651,-0.4931 0.7058,-1.06229 1.02517,-1.06229 0.25628,0 0.28346,0.53157 0.28346,5.54529 0,5.07163 0.0825,6.13456 0.43227,5.56862 0.0599,-0.097 0.28413,-0.17644 0.49811,-0.17644 0.21399,0 0.46327,-0.0734 0.55399,-0.16323 0.0907,-0.0898 0.36868,-0.19977 0.61768,-0.24444 0.24903,-0.0446 0.79104,-0.24466 1.20448,-0.44442 0.41345,-0.19975 0.8553,-0.36318 0.98189,-0.36318 0.1266,0 0.36581,-0.069 0.53163,-0.15336 0.1658,-0.0843 0.53583,-0.24971 0.82229,-0.36748 0.28646,-0.11776 0.65649,-0.28313 0.82229,-0.36747 0.16581,-0.0843 0.48828,-0.15336 0.7166,-0.15336 0.22831,0 0.51237,-0.11718 0.63124,-0.26041 0.11887,-0.14323 0.40432,-0.26042 0.63434,-0.26042 0.23002,0 0.45987,-0.10855 0.5108,-0.24123 0.0509,-0.13268 0.23211,-0.20474 0.40269,-0.16013 0.17057,0.0446 0.43338,-0.0421 0.58402,-0.19279 0.15064,-0.15065 0.43111,-0.2739 0.62328,-0.2739 0.19216,0 0.39203,-0.069 0.44419,-0.15341 0.0778,-0.12591 0.65156,-0.14249 1.35796,-0.0393 0.18757,0.0274 0.16082,1.82781 -0.0301,2.02423 -0.0881,0.0907 -0.28735,2.70398 -0.44266,5.80727 -0.15529,3.10329 -0.34731,5.87672 -0.4267,6.16318 -0.0794,0.28646 -0.15984,1.49535 -0.17877,2.68643 -0.019,1.19109 -0.0846,2.24577 -0.1458,2.34375 -0.0612,0.098 -0.15746,1.48756 -0.21378,3.08797 -0.0665,1.88982 -0.17474,2.98221 -0.30885,3.1163 -0.14156,0.14158 -0.20647,1.04148 -0.20647,2.86273 0,1.56844 -0.0678,2.65624 -0.16552,2.65624 -0.0944,0 -0.20627,1.2304 -0.26043,2.86458 -0.0521,1.57552 -0.13759,4.15363 -0.18979,5.72915 -0.0541,1.63416 -0.166,2.86461 -0.26041,2.86461 -0.091,0 -0.16552,0.39057 -0.16552,0.868 0,0.47743 0.0781,0.86807 0.17361,0.86807 0.10995,0 0.17361,1.27313 0.17361,3.47223 0,2.19903 0.0637,3.47223 0.17361,3.47223 0.10993,0 0.17361,1.26971 0.17361,3.46192 0,2.12073 0.0672,3.50353 0.17361,3.56924 0.10554,0.0652 0.17362,1.35696 0.17362,3.29442 0,2.10883 0.0628,3.20801 0.1857,3.24901 0.11905,0.0394 0.2165,1.24447 0.27148,3.35641 0.0471,1.81203 0.15892,3.52112 0.24831,3.79792 0.0894,0.27688 0.16721,1.6831 0.1729,3.12501 0.006,1.44192 0.0897,3.01231 0.18674,3.48966 0.097,0.47743 0.20892,2.11808 0.2487,3.64587 0.0398,1.5278 0.1118,3.0902 0.16007,3.4722 0.0483,0.382 0.12614,1.8199 0.17308,3.1955 0.0469,1.3755 0.11292,2.5285 0.14662,2.5622 0.0337,0.033 4.31186,0.04 9.50706,0.014 5.45213,-0.027 9.28064,-0.11 9.05517,-0.1953 -0.21484,-0.081 -0.39062,-0.2497 -0.39062,-0.3739 0,-0.4176 0.20882,-0.7752 0.4526,-0.7752 0.1942,0 0.24184,-0.4405 0.24184,-2.2358 0,-1.7754 0.0536,-2.2801 0.26042,-2.4518 0.17993,-0.1493 0.26042,-0.1558 0.26042,-0.021 0,0.1322 0.61076,0.1949 1.89947,0.1949 1.07904,0 1.94581,0.075 2.00676,0.1737 0.059,0.095 0.52776,0.1735 1.04166,0.1735 0.51391,0 0.98266,0.078 1.04167,0.1737 0.059,0.095 0.53237,0.1735 1.05191,0.1735 0.51954,0 0.94461,0.078 0.94461,0.1737 0,0.096 0.15625,0.1736 0.34722,0.1736 0.27007,0 0.34722,0.1157 0.34722,0.5208 l 0,0.5208 12.20706,0 12.20707,0 0.49899,-0.5208 c 0.27444,-0.2865 0.64062,-0.5208 0.81373,-0.5208 0.1731,0 0.31474,-0.078 0.31474,-0.1736 0,-0.1012 0.57389,-0.1737 1.37442,-0.1737 0.75592,0 1.40045,-0.073 1.43229,-0.1617 0.0318,-0.089 0.60474,-0.173 1.27313,-0.1868 1.96281,-0.04 1.82292,-0.1076 1.82292,0.8748 0,0.9306 0.008,0.9383 1.08507,1.1174 l 0.65103,0.1082 0,1.2074 c 0,1.0917 0.0333,1.2074 0.34723,1.2074 0.27006,0 0.34722,0.1157 0.34722,0.5209 0,0.405 -0.0772,0.5208 -0.34722,0.5208 -0.25464,0 -0.34723,0.1157 -0.34723,0.434 0,0.3183 0.0926,0.434 0.34723,0.434 0.27006,0 0.34722,0.1158 0.34722,0.5209 0,0.3377 -0.0879,0.5208 -0.25018,0.5208 -0.44345,0 -0.51272,0.3927 -0.12466,0.707 0.49313,0.3993 0.51159,1.2027 0.0276,1.2027 -0.27007,0 -0.34723,0.1157 -0.34723,0.5209 0,0.4455 0.0654,0.5207 0.4526,0.5207 0.3414,0 0.4267,0.067 0.34723,0.2746 -0.058,0.1511 -0.10538,0.3855 -0.10538,0.5209 0,0.1354 -0.13964,0.2463 -0.3103,0.2463 -0.2202,0 -0.3218,0.1512 -0.34998,0.5207 -0.032,0.4196 0.0284,0.5209 0.3103,0.5209 0.49152,0 0.49391,0.8629 0.003,0.9913 -0.22113,0.058 -0.34722,0.2369 -0.34722,0.4929 0,0.2496 0.13167,0.4439 0.34722,0.5123 0.19097,0.061 0.34722,0.2424 0.34722,0.404 0,0.1615 -0.15625,0.3913 -0.34722,0.5105 -0.44727,0.2794 -0.44727,0.8533 0,0.9952 0.2183,0.069 0.34722,0.2627 0.34722,0.5209 0,0.2582 -0.12892,0.4515 -0.34722,0.5208 -0.317,0.1006 -0.51891,0.8083 -0.21702,0.7607 0.44426,-0.07 0.58283,0.06 0.53236,0.498 -0.038,0.33 -0.14874,0.4699 -0.35874,0.4533 -0.25922,-0.02 -0.30382,0.1336 -0.30382,1.0503 0,0.6164 0.0907,1.1651 0.21267,1.2872 0.16415,0.1641 0.16606,0.2872 0.008,0.5397 -0.17839,0.2857 -0.13049,0.3621 0.37781,0.6033 0.32013,0.1519 0.7038,0.2762 0.85256,0.2762 0.14879,0 1.01014,0.2644 1.91415,0.5875 l 1.64362,0.5875 0.53545,-0.3257 c 0.29449,-0.1791 1.00149,-0.5218 1.57111,-0.7615 0.5696,-0.2398 1.46258,-0.6312 1.9844,-0.8699 1.18286,-0.541 1.72555,-0.7532 2.66195,-1.0407 l 0.73785,-0.2265 0,3.8024 0,3.8025 -0.92866,0 c -0.51076,0 -1.52639,0.051 -2.25694,0.1123 -1.34881,0.114 -1.61453,0.302 -1.06786,0.7557 0.19932,0.1655 0.26042,0.6185 0.26042,1.931 l 0,1.7149 -1.46379,0 -1.46377,0 -0.0553,-1.6664 c -0.0304,-0.9165 0.003,-1.7025 0.0749,-1.7464 0.0716,-0.044 0.13021,-0.2707 0.13021,-0.5038 0,-0.3764 -0.0728,-0.4222 -0.65104,-0.41 -0.35807,0.01 -0.55338,0.053 -0.43402,0.1013 0.30072,0.1213 0.27262,0.4058 -0.0401,0.4058 -0.14142,0 -0.30257,0.2148 -0.35812,0.4775 -0.0556,0.2625 -0.13665,0.6532 -0.18022,0.868 -0.0436,0.2148 -0.19492,0.3906 -0.33634,0.3906 -0.14141,0 -0.2571,0.1183 -0.2571,0.2628 0,0.272 -0.30424,0.8819 -0.60832,1.2193 -0.0959,0.1063 -1.03336,0.2876 -2.08333,0.4026 -1.04997,0.1152 -2.53403,0.28 -3.29792,0.3666 -2.81379,0.3185 -4.93746,0.5289 -8.07289,0.7998 -4.70325,0.4064 -6.28137,0.5482 -8.50692,0.7643 -4.70677,0.4573 -5.60102,0.5341 -8.07289,0.6936 -1.43228,0.092 -3.42447,0.2518 -4.42707,0.3543 -1.0026,0.1025 -2.72134,0.2632 -3.81943,0.3572 -1.09809,0.094 -2.89496,0.2523 -3.99304,0.3518 -2.72665,0.247 -5.63571,0.4635 -8.94095,0.6653 -1.52777,0.093 -3.87151,0.2549 -5.20832,0.359 -3.32394,0.259 -6.28327,0.476 -9.37497,0.6875 -1.43229,0.098 -3.6979,0.2611 -5.03471,0.3625 -1.3368,0.1014 -3.99304,0.2523 -5.90275,0.3353 -1.90972,0.083 -5.03471,0.2433 -6.94443,0.3561 -3.85428,0.2275 -3.92722,0.2275 -7.72567,0.01 -3.30966,-0.1946 -4.01683,-0.314 -4.3067,-0.7271 -0.12478,-0.1779 -0.37407,-0.3234 -0.55399,-0.3234 -0.17992,0 -0.37542,-0.078 -0.43443,-0.1736 -0.059,-0.096 -0.437,-0.1737 -0.83998,-0.1737 -0.53351,0 -0.80069,-0.094 -0.98293,-0.3472 -0.24561,-0.3407 -0.44943,-0.3472 -10.96132,-0.3472 -8.41454,0 -10.72659,-0.046 -10.78341,-0.217 -0.0574,-0.1725 -8.87193,-0.2348 -42.98941,-0.3038 -37.89859,-0.077 -42.93592,-0.1172 -43.07797,-0.3472 -0.13937,-0.2256 -1.48644,-0.267 -10.0833,-0.3094 -9.34923,-0.046 -9.93551,-0.031 -10.14867,0.2604 -0.21404,0.2927 -1.06031,0.3093 -15.74734,0.3093 -14.55057,0 -15.54015,-0.019 -15.82494,-0.3037 -0.23128,-0.2314 -0.59295,-0.3038 -1.51529,-0.3038 -0.8203,0 -1.3909,-0.097 -1.76711,-0.3012 -0.4824,-0.2614 -1.20762,-0.3084 -5.50351,-0.3573 l -4.9479,-0.056 -2.46442,-0.5978 c -1.35545,-0.3288 -3.02516,-0.7158 -3.71049,-0.86 -1.14002,-0.2398 -6.19047,-0.7763 -7.32332,-0.778 l -0.47743,0 0,3.6709 0,3.6711 -1.21027,-0.1015 c -1.19542,-0.1002 -2.08522,-0.4048 -2.98318,-1.0214 -0.25345,-0.174 -0.58549,-0.3164 -0.73785,-0.3164 -0.15236,0 -0.27701,-0.069 -0.27701,-0.1532 0,-0.084 -0.42161,-0.3595 -0.93691,-0.6116 -0.51531,-0.2521 -1.02078,-0.5595 -1.12329,-0.683 -0.12035,-0.145 -0.22867,-2.5031 -0.30579,-6.6564 l -0.1194,-6.4319 -3.35285,-0.1238 c -1.84408,-0.068 -3.42663,-0.078 -3.51678,-0.023 -0.0901,0.056 -0.20945,0 -0.26513,-0.1168 -0.13234,-0.2852 0.008,2.7792 0.22755,4.9903 0.28486,2.8608 0.35398,3.7518 0.40398,5.2083 l 0.0477,1.3888 -4.19786,0.046 -4.19783,0.046 0.0698,-0.7409 c 0.24178,-2.5657 0.62097,-6.1515 0.77598,-7.3381 0.21735,-1.6636 0.29853,-3.6619 0.15464,-3.8066 -0.057,-0.058 -6.89292,-0.1788 -15.19093,-0.2699 -8.29803,-0.091 -18.85683,-0.2198 -23.46402,-0.2861 l -8.37672,-0.1206 0.006,0.5055 c 0.0114,0.9424 0.63049,9.3755 0.77423,10.5469 0.058,0.4723 -0.002,0.75 -0.20513,0.9533 -0.21629,0.2163 -0.30514,0.2322 -0.36099,0.064 -0.0568,-0.1706 -0.80571,-0.2179 -3.22575,-0.2033 l -3.15163,0.018 0.0477,-1.618 c 0.0262,-0.89 0.16298,-3.3191 0.30382,-5.3982 0.14083,-2.0791 0.25606,-3.9345 0.25606,-4.1233 0,-0.3389 -0.17176,-0.343 -14.27947,-0.3399 -10.02337,0 -15.90947,0.08 -19.7482,0.2613 -3.0078,0.1419 -7.2656,0.3344 -9.46177,0.4277 -2.19618,0.093 -4.5204,0.2204 -5.16492,0.2821 l -1.17187,0.1122 0.005,3.0592 c 0.004,1.9894 0.11769,3.8787 0.32673,5.4029 0.17679,1.2891 0.28896,2.3992 0.24927,2.4668 -0.0842,0.1437 -6.55602,0.1655 -6.92646,0.024 -0.13752,-0.053 -0.20311,-0.1719 -0.14575,-0.2646 0.1206,-0.1951 0.29825,-1.5014 0.66868,-4.9165 0.14501,-1.3368 0.34297,-3.0164 0.43993,-3.7325 0.097,-0.7162 0.17577,-1.6051 0.17514,-1.9755 l -0.002,-0.6733 -2.30033,0.1143 c -1.2652,0.063 -3.15972,0.1872 -4.21006,0.2766 -1.05035,0.089 -3.27691,0.2435 -4.9479,0.3425 -1.671,0.099 -4.171,0.2566 -5.55555,0.3503 -3.13636,0.2123 -9.68296,0.5289 -10.87163,0.5258 l -0.88902,0 -0.10692,1.1718 c -0.0588,0.6445 -0.15833,2.1661 -0.22118,3.3812 -0.1069,2.0672 -0.0931,2.2172 0.2147,2.3299 0.18092,0.067 0.83677,0.6394 1.45743,1.2734 0.62065,0.634 1.4019,1.3412 1.7361,1.5716 0.3342,0.2303 0.75908,0.5577 0.94419,0.7273 0.18511,0.1697 0.40553,0.3086 0.48983,0.3086 0.3383,0 0.6493,0.5296 0.6493,1.1058 0,0.3354 0.0773,0.6576 0.17189,0.7161 0.10933,0.068 0.0977,0.1856 -0.0319,0.3243 -0.14027,0.1502 -0.93784,0.2308 -2.55903,0.2585 -1.29538,0.022 -2.60505,0.084 -2.91036,0.1375 -0.50818,0.089 -0.55955,0.158 -0.60763,0.8174 l -0.0524,0.7203 -3.2118,0.032 c -1.76649,0.017 -3.30945,-0.01 -3.42881,-0.058 z m 0.27491,-9.5913 c 0.2049,-0.1267 0.66646,-4.2993 0.49458,-4.4712 -0.10395,-0.1039 -8.95306,0.2138 -11.92395,0.4281 -0.90712,0.065 -1.62977,0.1776 -1.6059,0.2492 0.0239,0.071 0.0434,0.7882 0.0434,1.5924 l 0,1.4623 0.65104,0.2097 c 0.35807,0.1153 0.72916,0.2692 0.82465,0.342 0.0955,0.073 0.32987,0.1726 0.52084,0.2218 0.52298,0.1348 10.77344,0.1029 10.99534,-0.034 z"
       id="path3014"
       inkscape:connector-curvature="0" />
    <g
       style="font-size:40px;font-style:normal;font-weight:normal;line-height:125%;letter-spacing:0px;word-spacing:0px;fill:#ffffff;fill-opacity:1;stroke:none;font-family:sans-serif"
       id="text3784"
       transform="translate(0,4)">
      <path
         style="font-size:110px;font-variant:normal;font-weight:bold;font-stretch:normal;fill:#ffffff;fill-opacity:1;font-family:'Mom´sTypewriter';-inkscape-font-specification:'Mom´sTypewriter'"
         d="m 385.62537,651.51404 c 12.35036,-3.08947 27.43552,4.09726 12.31994,13.31024 -3.34735,10.3819 -0.28037,19.62389 -0.99029,30.68909 -0.48525,9.32993 0.53584,19.57359 0,30.02777 11.67368,3.15904 13.30071,16.42859 -1.73139,13.228 -8.3723,1.55152 -21.62756,-1.60479 -20.70972,-5.41642 -3.57035,9.03186 -15.65688,5.5439 -13.91282,-6.32446 -2.47665,-12.949 -4.07463,-26.46315 -8.63571,-39.98444 1.25083,-9.71329 -8.69786,-30.22608 -6.48895,-14.96185 0.88818,12.17554 -4.81395,23.56128 1.31928,34.09973 4.33892,7.64267 -11.27538,20.3773 3.68505,20.98336 6.61569,6.12719 10.59094,12.86967 -4.67535,11.35734 -8.11059,0.10539 -25.10921,-0.1381 -12.04468,-8.44352 9.9516,-5.57502 0.16795,-15.51883 4.45465,-25.76699 -1.1922,-11.08492 0.25405,-23.35376 -2.53112,-35.52979 3.3646,-9.96033 -18.65522,-10.44315 -2.30958,-14.62951 8.26041,2.1601 21.57603,-4.94227 25.13505,6.32446 0.005,13.80405 4.36925,21.30489 4.56375,30.74616 -2.23996,6.39483 6.69369,21.91649 6.82129,7.26104 4.36469,-10.13585 2.88354,-21.77551 6.38153,-31.68274 0.36083,-6.63024 0.21458,-12.37442 9.34907,-15.28747 z m -1.65162,16.93908 c -4.17442,12.69276 7.20224,1.67019 0,0 z m 2.86011,6.81794 c -13.18564,4.12039 0.11631,14.96472 -6.15997,22.88086 -2.68126,6.14629 -4.99767,15.50165 -5.82764,21.77978 -1.61751,11.17862 6.25848,12.64485 11.82312,4.23645 2.55568,-10.9742 -0.20533,-21.88577 2.14508,-32.28699 0.42746,-6.66584 -2.3346,-6.78458 -4.50836,-8.79852 3.57354,1.89108 3.88664,-5.90481 2.52777,-7.81158 z m -10.33935,56.43005 0.87951,0.33234 -0.87951,-0.33234 z"
         id="path3772"
         inkscape:connector-curvature="0" />
      <path
         style="font-size:110px;font-variant:normal;font-weight:bold;font-stretch:normal;fill:#ffffff;fill-opacity:1;font-family:'Mom´sTypewriter';-inkscape-font-specification:'Mom´sTypewriter'"
         d="m 437.28522,651.51404 c 15.39071,-2.68558 26.06625,7.29827 31.45782,19.24866 8.61963,12.92158 3.53485,26.27601 5.72022,38.50067 -5.57772,9.35667 -6.77601,18.25997 -12.97791,26.5097 -10.62735,6.22832 -29.99124,5.83773 -38.38989,-5.0589 -9.39946,-11.48377 -12.82862,-27.25839 -11.99097,-42.35107 0.33531,-9.58133 6.31816,-17.37881 8.79853,-25.85175 5.02497,-6.55511 9.88049,-8.51058 17.3822,-10.99731 z m 11.98761,9.45984 c -9.58858,1.40211 -20.28786,6.35285 -26.50971,14.58738 -2.44485,6.92519 -0.54571,14.47341 0,22.37246 -0.0492,9.79172 5.15439,20.89865 13.19947,28.59771 13.72703,5.22201 26.42003,-5.62957 23.98193,-16.93908 7.29665,-5.93159 6.34149,-23.35775 1.31927,-33.5492 -1.67209,-7.62571 -8.5191,-9.06688 -11.99096,-15.06927 z"
         id="path3774"
         inkscape:connector-curvature="0" />
      <path
         style="font-size:110px;font-variant:normal;font-weight:bold;font-stretch:normal;fill:#ffffff;fill-opacity:1;font-family:'Mom´sTypewriter';-inkscape-font-specification:'Mom´sTypewriter'"
         d="m 508.79797,651.51404 c 15.59809,0.16346 37.87147,2.14787 41.03007,21.53058 -0.009,8.57937 -1.01259,17.83817 -10.11942,21.14947 -7.21365,5.83071 4.14823,17.79019 3.54823,26.78415 11.04863,1.40966 23.31998,19.03871 3.49126,17.87314 -8.98602,1.16504 -27.99758,-4.27789 -18.25836,-12.75971 -4.29091,-7.99737 0.70956,-23.40274 -9.7905,-27.16766 -8.81041,-3.25381 -15.11108,0.83327 -10.88821,9.02008 -12.66676,8.01436 2.24519,19.85454 11.65863,20.89859 8.29968,15.05399 -22.80765,8.42004 -31.46119,8.47122 -16.20857,-0.24615 -4.0938,-13.60428 6.71051,-14.08233 2.39753,-5.25007 -0.0937,-9.65526 -0.87951,-16.27777 6.20882,-4.66324 -3.47808,-5.04491 -1.98059,-13.97156 8.25379,-2.51819 -6.14944,-8.9816 3.18908,-14.7403 -4.38911,-8.34109 -1.24312,-17.39483 -13.63922,-18.47992 0.60658,-12.34625 18.76283,-4.90336 27.38922,-8.24798 z m 5.39124,12.09839 c -11.25034,0.88896 -6.85582,9.78414 -6.0492,8.9093 -5.24253,4.83673 -2.22602,17.05426 12.43073,15.07263 16.40672,0.76573 19.81717,-18.21234 6.04919,-23.98193 -4.37087,0.76993 -8.1682,1.49893 -12.43072,0 z m -4.72992,14.41131 c 7.80881,6.21228 -6.3035,5.16057 0,0 z"
         id="path3776"
         inkscape:connector-curvature="0" />
      <path
         style="font-size:110px;font-variant:normal;font-weight:bold;font-stretch:normal;fill:#ffffff;fill-opacity:1;font-family:'Mom´sTypewriter';-inkscape-font-specification:'Mom´sTypewriter'"
         d="m 596.66907,652.06122 c 12.25055,1.39109 31.08828,0.75197 33.87817,14.96185 6.39824,3.95775 1.5517,14.64968 0.55054,21.45081 0.71742,13.79682 9.57776,26.47575 6.09133,36.4093 -4.74331,-3.63415 3.98469,6.91834 -4.7687,9.57062 -11.85316,7.01958 -26.11116,6.26241 -39.93072,6.15997 -8.88851,-1.99962 -32.44765,5.34544 -27.72308,-9.40992 11.35495,-1.25874 22.27919,-3.76067 17.43741,-17.48497 2.1291,-15.50741 1.67523,-28.70644 -0.60423,-43.8357 2.79441,-9.82335 -28.64445,-4.49184 -13.75,-16.28113 10.39448,-1.20501 18.17035,2.07327 28.81928,-1.54083 z m 5.72021,11.44043 c -13.4633,0.85655 -11.71034,22.18683 0.21988,23.92654 14.65611,1.86946 27.57836,-14.00885 11.32797,-22.27493 -2.9993,-2.30629 -8.56224,0.56371 -11.54785,-1.65161 z m 3.85041,1.32263 c 1.49773,1.16585 -1.28723,0.52072 0,0 z m -0.66132,34.53949 c -11.1978,-0.1498 -14.51504,4.44744 -10.88989,12.7597 8.13141,-1.1808 -8.33864,2.47606 0.99029,3.51807 -5.78504,14.57884 23.75163,16.1024 28.16132,4.34723 -5.62767,-2.40841 7.57142,-7.71087 -2.97089,-11.38672 1.02119,-9.82902 -7.68059,-5.92509 -15.29083,-9.23828 z m 32.66968,26.83868 0.66131,0.66132 -0.66131,-0.66132 z"
         id="path3778"
         inkscape:connector-curvature="0" />
      <path
         style="font-size:110px;font-variant:normal;font-weight:bold;font-stretch:normal;fill:#ffffff;fill-opacity:1;font-family:'Mom´sTypewriter';-inkscape-font-specification:'Mom´sTypewriter'"
         d="m 658.83948,651.51404 c 13.1104,3.90759 31.39606,-3.21989 41.13922,6.37818 -2.00022,14.31187 -25.44669,0.2516 -23.32062,15.18006 2.1535,6.97731 -0.23481,17.55848 -0.87952,23.32061 -1.67977,8.38336 5.2886,19.61743 4.61915,26.18073 4.50014,4.2378 30.34376,6.07956 14.74029,16.05957 -15.67789,0.0343 -32.0844,0.20086 -47.18842,-1.97975 -11.99,-12.08452 13.7148,-8.56132 17.37885,-12.87133 4.34981,-10.03484 0.0489,-22.58964 2.09137,-34.42871 0.5526,-7.50461 4.58387,-20.41432 -3.96118,-24.97223 -10.29068,3.13526 -29.19913,-4.66421 -12.09839,-12.20916 2.48345,0.17705 5.2141,0.84035 7.47925,-0.65797 z"
         id="path3780"
         inkscape:connector-curvature="0" />
      <path
         style="font-size:110px;font-variant:normal;font-weight:bold;font-stretch:normal;fill:#ffffff;fill-opacity:1;font-family:'Mom´sTypewriter';-inkscape-font-specification:'Mom´sTypewriter'"
         d="m 757.74146,651.51404 c 6.61178,2.771 27.1342,-1.37316 19.68844,10.99731 -13.71367,-0.25124 -12.26642,16.2315 -8.46954,25.30121 -4.22716,7.23068 0.0361,18.76858 -3.07831,26.94946 -0.2859,11.67722 -3.78148,22.18165 -17.6004,23.54218 -12.24282,3.45327 -27.11544,-3.45009 -31.90094,-14.41132 -2.86039,-13.11933 1.80361,-27.1214 -1.54084,-40.48126 6.22954,-12.6443 -3.30505,-19.57021 -12.20916,-24.30756 7.28212,-8.58405 18.61938,-3.60382 27.83233,-6.05255 12.1402,0.3691 15.3949,2.85074 27.27842,-1.53747 z m -20.34974,3.73962 c 0.2647,8.19299 9.48983,0.97183 0,0 z m 3.73963,6.2674 c -2.83194,7.03248 -16.94624,-3.45987 -14.7403,10.01037 0.34877,12.11186 -1.93797,23.83249 -0.32898,36.95984 -0.30862,8.51502 2.18225,22.78684 14.96099,20.75402 9.92422,-0.83266 16.10578,-13.59909 15.39912,-21.63353 0.17265,-11.22715 -1.62499,-26.47258 -0.55054,-33.22022 0.089,-8.9153 -5.81914,-11.07677 -14.74029,-12.87048 z"
         id="path3782"
         inkscape:connector-curvature="0" />
      <path
         style="font-size:110px;font-variant:normal;font-weight:bold;font-stretch:normal;fill:#ffffff;fill-opacity:1;font-family:'Mom´sTypewriter';-inkscape-font-specification:'Mom´sTypewriter'"
         d="m 805.43341,651.51404 c 10.93291,5.14921 35.03008,-4.73428 36.73828,10.45013 5.18495,7.13487 -4.50337,9.64405 1.54083,15.83802 -5.28533,13.02358 -18.02585,1.1691 -20.34973,-7.15027 -6.60408,-10.19185 -18.88474,-9.33885 -23.53882,-1.2085 -8.74785,14.82205 17.73874,13.55466 26.94947,18.15094 12.67491,2.977 21.71984,16.50682 18.91968,23.97858 -2.37394,9.84368 4.98736,12.41842 -7.59003,19.24865 -6.94631,9.34361 -23.38306,11.83007 -33.65997,4.95148 -8.74934,-0.48574 -25.34342,4.27033 -20.02076,-12.31995 -3.30889,-10.82298 -0.56262,-28.27587 14.5221,-17.6004 1.00604,6.53147 9.90479,19.40905 20.67871,17.6004 7.19303,-0.18138 11.70865,-10.73179 8.35876,-18.59069 -3.67319,-9.19698 -16.08409,-8.41449 -25.04146,-11.30634 -10.37665,-1.92816 -18.75022,-15.65092 -16.97727,-21.03436 3.19954,-6.54594 1.27046,-13.93413 9.89959,-17.04987 2.59128,-1.80839 5.78868,-4.20101 9.57062,-3.95782 z"
         id="path3784"
         inkscape:connector-curvature="0" />
    </g>
    <rect
       style="fill:#ffffff;fill-opacity:1;stroke:none"
       id="rect3809"
       width="517.5556"
       height="15"
       x="327.9581"
       y="758.51263"
       rx="5.0393429" />
    <rect
       style="fill:#ffffff;fill-opacity:1;stroke:none"
       id="rect3813"
       width="56.568542"
       height="3.7880716"
       x="395.26443"
       y="313.04749"
       rx="4.9594507"
       transform="matrix(0.94943159,-0.31397398,0.31397398,0.94943159,0,0)" />
    <path
       style="font-size:medium;font-style:normal;font-variant:normal;font-weight:normal;font-stretch:normal;text-indent:0;text-align:start;text-decoration:none;line-height:normal;letter-spacing:normal;word-spacing:normal;text-transform:none;direction:ltr;block-progression:tb;writing-mode:lr-tb;text-anchor:start;baseline-shift:baseline;color:#000000;fill:#ffffff;fill-opacity:1;stroke:none;stroke-width:4;marker:none;visibility:visible;display:inline;overflow:visible;enable-background:accumulate;font-family:Sans;-inkscape-font-specification:Sans"
       d="m 365.84584,19.216396 c 22.40707,0.684504 24.40005,0.42971 45.6406,5.09375 2.70719,0.609159 5.05243,1.356586 6.75,2.15625 1.69757,0.799664 2.66975,1.671825 2.96875,2.25 0.063,0.121885 0.0976,0.09052 0,0.375 -0.0976,0.284478 -0.41135,0.813864 -1,1.4375 -1.1773,1.247271 -3.37686,2.836541 -6.1875,4.5 -5.62128,3.326919 -13.72086,7.05832 -21.875,10.75 -8.15414,3.69168 -16.38459,7.335538 -22.40625,10.65625 -3.01083,1.660356 -5.45254,3.224881 -7.1875,4.8125 -0.86748,0.793809 -1.57109,1.603732 -2.03125,2.59375 -0.46016,0.99002 -0.57524,2.3099 -0.0312,3.40625 0.85289,1.71889 2.50592,2.69267 4.34375,3.28125 1.83783,0.58858 3.998,0.87781 6.46875,1.03125 4.9415,0.30687 11.13142,0.08196 17.8125,0.09375 13.36216,0.02358 28.52199,1.10199 38.375,8.46875 2.31749,1.73271 3.47615,3.56406 4.03125,5.78125 0.5551,2.21719 0.43051,4.88344 -0.0937,7.9375 -1.04853,6.10812 -3.78194,13.654324 -5.09375,22.156254 -1.31181,8.50193 -1.11969,18.05071 3.84375,28 4.96344,9.94929 38.70536,29.70536 38.70536,29.70536 0,0 -30.58088,-22.40468 -35.11161,-31.48661 -4.53073,-9.08193 -4.73571,-17.61624 -3.5,-25.625 1.23571,-8.00876 3.97703,-15.40631 5.125,-22.093754 0.57399,-3.34372 0.75804,-6.53469 0,-9.5625 -0.75804,-3.02781 -2.54387,-5.82105 -5.5,-8.03125 -11.24147,-8.40487 -27.23532,-9.2261 -40.78125,-9.25 -6.77297,-0.01195 -12.95744,0.19223 -17.5625,-0.09375 -2.30253,-0.14299 -4.21154,-0.43111 -5.5,-0.84375 -1.28846,-0.41264 -1.82031,-0.88786 -2,-1.25 0.0277,0.05584 -0.0132,0.29269 0.0937,0.0625 0.10699,-0.23019 0.45602,-0.76018 1.09375,-1.34375 1.27545,-1.16714 3.558,-2.662067 6.4375,-4.25 5.75901,-3.175866 13.92587,-6.8021 22.09375,-10.5 8.16788,-3.6979 16.34362,-7.454599 22.28125,-10.96875 2.96882,-1.757075 5.39571,-3.421648 7.0625,-5.1875 0.83339,-0.882926 1.50243,-1.819804 1.875,-2.90625 0.37257,-1.086446 0.34538,-2.409124 -0.21875,-3.5 -0.95534,-1.847348 -2.73036,-3.035706 -4.84375,-4.03125 -2.11339,-0.995544 -4.67736,-1.788302 -7.5625,-2.4375 -5.77027,-1.298397 -12.80151,-2.06234 -19.6875,-2.53125 -13.77198,-0.93782 -26.82815,1.34375 -26.82815,1.34375 z"
       id="path3819"
       inkscape:connector-curvature="0"
       sodipodi:nodetypes="ccscssssssscssssscsscssssssssccssssssssssc" />
    <text
       xml:space="preserve"
       style="font-size:40px;font-style:normal;font-weight:normal;line-height:125%;letter-spacing:0px;word-spacing:0px;fill:#ffffff;fill-opacity:1;stroke:none;font-family:sans-serif"
       x="336.4613"
       y="822.1015"
       id="text3821"
       sodipodi:linespacing="125%"><tspan
         sodipodi:role="line"
         id="tspan3823"
         x="336.4613"
         y="822.1015"
         style="font-size:36px;font-style:normal;font-variant:normal;font-weight:normal;font-stretch:normal;fill:#ffffff;fill-opacity:1;font-family:'Mom´sTypewriter';-inkscape-font-specification:'Mom´sTypewriter'">The Utopia  Conspiracy</tspan></text>
  </g>
</svg>
